<svg xmlns="http://www.w3.org/2000/svg" viewBox="0 0 140 140"><defs><style>.cls-1{fill:#7db1c9;}.cls-2{fill:#fff;}</style></defs><g id="Layer_2" data-name="Layer 2"><g id="Layer_1-2" data-name="Layer 1"><g id="Rectangle_3673" data-name="Rectangle 3673"><rect class="cls-1" width="140" height="140" rx="40"/></g><path class="cls-2" d="M30.44,106.38c.74,0,1.29-.21,1.37-1,.07-.66-.5-1.09-1.39-1.1-1.07,0-2.15,0-3.26,0v-52h22.1V63.14q0,7.29,0,14.58c0,.74.22,1.29,1,1.37s1.07-.47,1.09-1.39V29.84H88.46V77c0,.33-.1.73.05,1s.69.82,1,.81.74-.51,1-.87c.13-.2,0-.57,0-.87V52.28h22.26v52c-1.79,0-3.51,0-5.24,0-.91,0-1.43.42-1.37,1.11s.64,1,1.37,1c1.87,0,3.75,0,5.62,0,1.6,0,1.79-.18,1.79-1.75V52.26c0-1.67-.48-2.14-2.14-2.14H90.57V30c0-1.68-.65-2.34-2.34-2.34H51.58c-1.67,0-2.32.67-2.32,2.36V50.11H48.13c-7,0-14,0-21,0A2.17,2.17,0,0,0,25,51.17v54.65a6.93,6.93,0,0,0,1.66.52C27.92,106.42,29.18,106.35,30.44,106.38Z"/><path class="cls-2" d="M86,109.58c-.07-1-.2-2.09-.23-3.15a1.11,1.11,0,0,1,.35-.86,1,1,0,0,0,.41-1.4,12.66,12.66,0,0,1-.44-1.52,1.06,1.06,0,0,1,0-.66c.53-1.14.42-1.36-.82-1.32a7.54,7.54,0,0,0-1.28.27,7.69,7.69,0,0,0-3.66-1.79c-2.06-.55-4.19-.89-6.06-2.14-.81,2.62-1.61,5.19-2.4,7.76a37.24,37.24,0,0,1-1.22-3.6,1.33,1.33,0,0,1,.28-1.56,1.39,1.39,0,0,0,.24-1.25c-.15-.31-.71-.49-1.13-.6a2.48,2.48,0,0,0-1.21,0c-.45.11-1.06.29-1.21.62s.17.89.33,1.33c.1.26.46.52.41.71-.37,1.47-.81,2.91-1.23,4.37l-.18,0c-.88-2.57-1.76-5.15-2.6-7.59-1.23.45-2.33.91-3.46,1.27s-2.55.68-3.8,1a5.25,5.25,0,0,0-4,4.54c-.26,1.85-.38,3.73-.51,5.59s0,2,1.58,2.69H84.24C85.89,111.71,86.09,111.4,86,109.58Z"/><path class="cls-2" d="M83.28,44.61c1.08,0,1.3-.25,1.3-1.37,0-2.64,0-5.27,0-7.91,0-1.26-.16-1.42-1.41-1.42H56.56c-1.09,0-1.31.21-1.31,1.26q0,4.08,0,8.17c0,1,.25,1.27,1.32,1.27Z"/><path class="cls-2" d="M83.18,33.91h0Z"/><path class="cls-2" d="M77.29,85.06c-.7-.41-.58-1-.57-1.6,0-.78.09-1.57.08-2.36a6,6,0,0,0-1.73-4.37,8.88,8.88,0,0,0-9.22-1.38c-2.91,1.29-4.12,3.58-3.75,6.77,0,.6,0,1.24,0,1.88a1,1,0,0,1-.15.55c-1.08,1.22-1.27,1.87-.52,3.15A47,47,0,0,0,64.86,93c2.58,3.28,6.58,3.21,9.08-.13a58.66,58.66,0,0,0,3.23-5.11,4,4,0,0,0,.46-1.59C77.66,85.79,77.54,85.21,77.29,85.06Zm-.79,1.45a3.16,3.16,0,0,1-.29.74c-1,1.66-2,3.38-3.14,5C71.75,94.06,69.83,94.75,68,94a5.77,5.77,0,0,1-2.27-1.69,54.73,54.73,0,0,1-3.07-4.59c-1-1.59-.81-2,1.09-2.38-.13-.79-.26-1.54-.39-2.28a3,3,0,0,1,1.39-3.15,1.6,1.6,0,0,1,2,0,12.72,12.72,0,0,0,8.09,2.93c.2,0,.41,0,.73.07-.25.86-.48,1.68-.75,2.62a8,8,0,0,0,1,.09C76.56,85.59,76.67,86,76.5,86.51Z"/><path class="cls-2" d="M89,90.13c1.43,1.27,3,2.35,4.68,3.59l-1-1.9c1.77,1.21,2,2.2,1.51,6.12,1.73.26,1.87.21,2.27-1.38a11.31,11.31,0,0,0-1.94-10,5.26,5.26,0,0,0-3.1-2.33c-3.88-.72-6.67-.31-8.91,3.56a12,12,0,0,0-1.37,7.72,9.09,9.09,0,0,0,.64,2.08.8.8,0,0,0,.56.44c.69,0,1.39,0,2.19,0A13.29,13.29,0,0,1,84,92.22a9.44,9.44,0,0,1,2.64-5A22.23,22.23,0,0,0,89,90.13Z"/><path class="cls-2" d="M49.13,106.36c-.29-1-.49-1.64-.7-2.33a1.21,1.21,0,0,1,.17-1.36c.47-.52.18-1.06-.54-1.16a4.4,4.4,0,0,0-1,0c-.85.07-1.06.54-.61,1.25.13.21.34.48.3.67-.21.9-.49,1.79-.75,2.68h-.18l-1.7-4.92c-1.13.35-2.18.67-3.25,1-.67.19-1.36.33-2,.52A3.67,3.67,0,0,0,36.08,106c-.1.81-.15,1.63-.24,2.45-.17,1.56.18,2,1.73,2h12c.28,0,.56,0,.8,0,.47-3,.12-6,1.33-8.84l-1-.51Z"/><path class="cls-2" d="M93.71,100.58l2.74,4a6.41,6.41,0,0,1-.93,0,2.83,2.83,0,0,0-2.57.94c-1.26,1.2-2.62,2.31-4,3.46l-1-.8c.06.58.14,1,.15,1.49s.25.79.85.78c1.79,0,3.57,0,5.36,0h8.45c-.11-2.2-.22-4.3-1.76-5.93C99.06,102.43,96.37,101.7,93.71,100.58Z"/><path class="cls-2" d="M52.52,91.08a13.29,13.29,0,0,0-.21-1.91c-.46-1.82-2-2.94-4.4-3.13-2.57-.2-5.6,1.25-5.32,4.8a11.49,11.49,0,0,1,0,1.31,1,1,0,0,1-.24.61,1.36,1.36,0,0,0-.23,1.9,30.86,30.86,0,0,0,2.56,3.87,3.46,3.46,0,0,0,5.56,0,28,28,0,0,0,2.54-4c.22-.38.32-1.17.1-1.38C52.23,92.54,52.5,91.8,52.52,91.08Zm-.68,3.83A31.79,31.79,0,0,1,50,97.78a2.91,2.91,0,0,1-5,0,32.45,32.45,0,0,1-2.1-3.23c-.54-.91-.36-1.18.82-1.36-.09-.6-.19-1.15-.25-1.69a1.94,1.94,0,0,1,1.2-2,1.24,1.24,0,0,1,1,0,9.47,9.47,0,0,0,6,2.06l-.47,1.7C52.55,93.58,52.59,93.68,51.84,94.91Z"/><path class="cls-2" d="M43.92,63.27c0-.16-.36-.43-.56-.43q-5.45,0-10.87,0c-.19,0-.52.24-.53.38,0,1.07,0,2.14,0,3.24H44C44,65.36,44,64.31,43.92,63.27Z"/><path class="cls-2" d="M43.87,74V70.38H32V74Z"/><path class="cls-2" d="M43.87,77.92H32v3.62H43.87Z"/><path class="cls-2" d="M107.94,62.89H96.05v3.55h11.89Z"/><path class="cls-2" d="M107.9,70.41H96.05V74H107.9Z"/><path class="cls-2" d="M96.07,81.5H108V77.94H96.07Z"/><path class="cls-2" d="M73.13,51.62H66.68v6.46h6.45Z"/><path class="cls-2" d="M77.39,58.08h6.44V51.6H77.39Z"/><path class="cls-2" d="M62,58.12c.16,0,.45-.41.45-.64,0-1.75,0-3.51,0-5.27,0-.57-.25-.68-.75-.67-1,0-2,0-3,0H56v6.59C58.06,58.14,60,58.16,62,58.12Z"/><path class="cls-2" d="M62.44,63.68H56v6.44h6.44Z"/><path class="cls-2" d="M73.14,63.71H66.69v6.42h6.45Z"/><path class="cls-2" d="M83.81,63.69H77.39v6.45h6.42Z"/></g></g></svg>