<svg xmlns="http://www.w3.org/2000/svg" width="140" height="140" viewBox="0 0 140 140">
  <g id="Group_3585" data-name="Group 3585" transform="translate(-243.697 -169.622)">
    <rect id="Rectangle_3601" data-name="Rectangle 3601" width="140" height="140" rx="40" transform="translate(243.697 169.622)" fill="#ff8185"/>
    <path id="Path_3543" data-name="Path 3543" d="M324.284,285.885a45.85,45.85,0,0,0,29.232-22.922,43.371,43.371,0,0,0,5.169-22.014,42.71,42.71,0,0,0-3.43-15.864,46.027,46.027,0,0,0-25.019-24.658,44.6,44.6,0,0,0-9.362-2.634,43.928,43.928,0,0,0-25.653,3.516,45.656,45.656,0,0,0-17.989,14.882,44.455,44.455,0,0,0-7.549,17.045,41.46,41.46,0,0,0-.844,6.359c-.018.343-.093.684-.142,1.026v3.133c.05.369.124.736.146,1.107a42.494,42.494,0,0,0,1.69,9.659,45.252,45.252,0,0,0,14.358,21.948,44.709,44.709,0,0,0,17.693,9.26,40.258,40.258,0,0,0,6.3,1.167c1,.1,2,.168,3,.254.119.01.235.041.353.062h3.052c.478-.049.954-.114,1.432-.145A42.937,42.937,0,0,0,324.284,285.885Zm-42.372-18.939c-.107-.136-.2-.255-.3-.378A39.541,39.541,0,0,1,274.97,252.9a42.039,42.039,0,0,1-1.273-13.885,39.618,39.618,0,0,1,9.542-23.207,38.93,38.93,0,0,1,16.179-11.239,40.136,40.136,0,0,1,8.98-2.2,41.254,41.254,0,0,1,8.7-.207,39.486,39.486,0,0,1,22.334,8.939,38.994,38.994,0,0,1,12.894,19.672,40.418,40.418,0,0,1,1.469,8.242,41.249,41.249,0,0,1-.113,7.618,39.823,39.823,0,0,1-7.827,19.965c-.079.105-.165.2-.275.34a36.409,36.409,0,0,0-21.054-18.212c.775-.578,1.553-1.1,2.271-1.7a21.067,21.067,0,0,0,7.4-12,19.167,19.167,0,0,0-1.8-13.21,21.34,21.34,0,0,0-13.09-10.946,18.611,18.611,0,0,0-7.106-.745,20.369,20.369,0,0,0-11.348,4.62,20.976,20.976,0,0,0-7.385,11.429,19.516,19.516,0,0,0,2.039,14.66,21.632,21.632,0,0,0,7.15,7.633c.089.059.179.116.268.177a.432.432,0,0,1,.066.078A36.4,36.4,0,0,0,281.912,266.946Zm36.575-20.6a16.6,16.6,0,0,1-10.871-.468,14.983,14.983,0,0,1-9.5-11.07,16.377,16.377,0,0,1,.709-10.054,15,15,0,0,1,10.954-9.418,16.365,16.365,0,0,1,10.207.709,15.122,15.122,0,0,1,9.438,11.222q.137.593.22,1.171c.022.146.041.291.058.435l.005.048a17.8,17.8,0,0,1-.791,7.568,15.332,15.332,0,0,1-1.454,3.082A15,15,0,0,1,318.487,246.351ZM312.4,282.327a40.585,40.585,0,0,1-13.391-2.669,39.233,39.233,0,0,1-13.287-8.449c-.292-.281-.3-.286-.142-.645a29.761,29.761,0,0,1,17.053-16.718,29.05,29.05,0,0,1,7.784-1.839,30.735,30.735,0,0,1,17.294,3.1,29.629,29.629,0,0,1,13.692,14.316c.225.483.429.977.673,1.533-.91.8-1.77,1.605-2.68,2.35a39.375,39.375,0,0,1-15.656,7.834A41.464,41.464,0,0,1,312.4,282.327Z" fill="#fff"/>
  </g>
</svg>
