<svg xmlns="http://www.w3.org/2000/svg" viewBox="0 0 140 140"><defs><style>.cls-1{fill:#88b1c7;}.cls-2{fill:#fff;}</style></defs><g id="Layer_2" data-name="Layer 2"><g id="Layer_1-2" data-name="Layer 1"><g id="Rectangle_3673" data-name="Rectangle 3673"><rect class="cls-1" width="140" height="140" rx="40"/></g><path id="Path_3597" data-name="Path 3597" class="cls-2" d="M80.59,116.26a45.83,45.83,0,0,0,29.23-22.92,43.4,43.4,0,0,0,5.17-22,42.89,42.89,0,0,0-3.43-15.87,46,46,0,0,0-25-24.66,45.55,45.55,0,0,0-9.36-2.63,43.92,43.92,0,0,0-25.66,3.52,45.62,45.62,0,0,0-18,14.88,44.39,44.39,0,0,0-7.54,17A41.35,41.35,0,0,0,25.14,70c0,.35-.09.69-.14,1v3.13c.05.37.12.74.15,1.11a41.81,41.81,0,0,0,1.69,9.66,45.84,45.84,0,0,0,32.05,31.21,40.63,40.63,0,0,0,6.3,1.16c1,.1,2,.17,3,.26.12,0,.23,0,.35.06h3c.48,0,1-.12,1.43-.15A42,42,0,0,0,80.59,116.26ZM38.21,97.32,37.92,97a39.6,39.6,0,0,1-6.65-13.67A42.23,42.23,0,0,1,30,69.39a39.58,39.58,0,0,1,9.54-23.2A39,39,0,0,1,55.72,35a39.69,39.69,0,0,1,9-2.2,40.81,40.81,0,0,1,8.7-.21,39.52,39.52,0,0,1,22.33,8.94,39,39,0,0,1,12.9,19.67,41.16,41.16,0,0,1,1.47,8.24A42.16,42.16,0,0,1,110,77a39.85,39.85,0,0,1-7.82,20l-.28.34a36.4,36.4,0,0,0-21-18.21c.77-.58,1.55-1.1,2.27-1.7a21.13,21.13,0,0,0,7.4-12A19.17,19.17,0,0,0,88.7,52.2a21.33,21.33,0,0,0-13.09-11,18.58,18.58,0,0,0-7.11-.75,20.44,20.44,0,0,0-11.35,4.62,21,21,0,0,0-7.38,11.43,19.56,19.56,0,0,0,2,14.66A21.81,21.81,0,0,0,59,78.85l.27.17.07.08A36.42,36.42,0,0,0,38.21,97.32Zm36.58-20.6a16.61,16.61,0,0,1-10.87-.46,15,15,0,0,1-9.5-11.07,16.35,16.35,0,0,1,.71-10.06,15,15,0,0,1,10.95-9.42,16.39,16.39,0,0,1,10.21.71,15.14,15.14,0,0,1,9.44,11.23c.09.39.16.78.22,1.17l.06.43v0a17.83,17.83,0,0,1-.79,7.57A15.76,15.76,0,0,1,83.77,70a15,15,0,0,1-9,6.78Zm-6.09,36A40.39,40.39,0,0,1,55.31,110,39.31,39.31,0,0,1,42,101.59c-.3-.28-.3-.29-.15-.65A30,30,0,0,1,66.72,82.38,30.77,30.77,0,0,1,84,85.48,29.64,29.64,0,0,1,97.71,99.8c.22.48.43,1,.67,1.53-.91.8-1.77,1.61-2.68,2.35A39.44,39.44,0,0,1,80,111.52,41.59,41.59,0,0,1,68.7,112.7Z"/></g></g></svg>