<svg xmlns="http://www.w3.org/2000/svg" viewBox="0 0 22 22"><defs><style>.cls-1{fill:#989898;}</style></defs><g id="Layer_2" data-name="Layer 2"><g id="Layer_1-2" data-name="Layer 1"><path class="cls-1" d="M21.73,6.1A3.45,3.45,0,0,0,19.6,4.17a3.58,3.58,0,0,0-1-.15H18l0-.65a3.39,3.39,0,0,0-.27-1.32A3.28,3.28,0,0,0,16.5.58a3.37,3.37,0,0,0-.88-.42,3.12,3.12,0,0,0-1-.16H3.76A3.63,3.63,0,0,0,2.3.3,3.81,3.81,0,0,0,.64,1.66a4.08,4.08,0,0,0-.47,1A3.83,3.83,0,0,0,0,3.76V14.62a3.3,3.3,0,0,0,.27,1.31,3.36,3.36,0,0,0,1.21,1.48,3.72,3.72,0,0,0,.88.42,3.67,3.67,0,0,0,1,.16H4v.59a3.29,3.29,0,0,0,.27,1.33,3.42,3.42,0,0,0,1.23,1.51,3.34,3.34,0,0,0,.9.42,3.23,3.23,0,0,0,1,.16H18.59a3.28,3.28,0,0,0,1.32-.27,3.44,3.44,0,0,0,1.51-1.24,3.15,3.15,0,0,0,.42-.89,3.29,3.29,0,0,0,.16-1V7.43a3.28,3.28,0,0,0-.27-1.32ZM4.6,5.52a3.71,3.71,0,0,0-.43.9,3.48,3.48,0,0,0-.15,1v9.46H3.37a2.2,2.2,0,0,1-.88-.18,2.24,2.24,0,0,1-1-.82,2.32,2.32,0,0,1-.29-.59,2.29,2.29,0,0,1-.1-.68V3.77a2.65,2.65,0,0,1,.21-1,2.79,2.79,0,0,1,1-1.18A2.66,2.66,0,0,1,3.77,1.1H14.61a2.28,2.28,0,0,1,1.88,1,2.62,2.62,0,0,1,.29.58,2.32,2.32,0,0,1,.1.67V4H7.43a3.28,3.28,0,0,0-1.32.27A3.42,3.42,0,0,0,4.6,5.52ZM20.9,18.58a2.29,2.29,0,0,1-2.31,2.31H7.43a2.33,2.33,0,0,1-.9-.18,2.38,2.38,0,0,1-1-.84,2.78,2.78,0,0,1-.29-.6,2.26,2.26,0,0,1-.1-.69V7.43a2.3,2.3,0,0,1,1-1.92,3,3,0,0,1,.6-.29,3.12,3.12,0,0,1,.44-.09H18.59a2.33,2.33,0,0,1,.9.18,2.34,2.34,0,0,1,1.3,1.44,2.26,2.26,0,0,1,.11.69Z"/><path class="cls-1" d="M17,12.2H13.81V9A.81.81,0,1,0,12.2,9V12.2H9a.81.81,0,1,0,0,1.61H12.2V17a.81.81,0,0,0,1.61,0V13.81H17a.81.81,0,1,0,0-1.61Z"/></g></g></svg>