<svg xmlns="http://www.w3.org/2000/svg" viewBox="0 0 160 160"><defs><style>.cls-1{fill:#0071bc;}</style></defs><g id="Layer_2" data-name="Layer 2"><g id="Layer_1-2" data-name="Layer 1"><path class="cls-1" d="M77.71,77.22q0,10.35,0,20.69v0Q77.71,87.57,77.71,77.22Z"/><path class="cls-1" d="M113.71,67.17V93.41c0,8.4,0,16.8,0,25.2,0-8.4,0-16.8,0-25.2Z"/><path class="cls-1" d="M80.12,0A80,80,0,1,0,160,78.16,80,80,0,0,0,80.12,0Zm-.41,153A73,73,0,1,1,153,80,73.06,73.06,0,0,1,79.71,153Z"/><path class="cls-1" d="M121.76,45.25a9,9,0,0,0-9.16-7c-7.44,0-14.88,0-22.31,0H89c0-1.23,0-2.31,0-3.39A9,9,0,0,0,71,35c0,1,0,2,0,3.22H47.43c-5.58,0-9.37,3.81-9.42,9.39,0,1.63,0,3.26,0,4.88,0,2.7,1.05,3.74,3.78,3.74h76.32c.32,0,.64,0,1,0a3,3,0,0,0,2.94-3c0-1.18,0-2.37,0-3.55A25.52,25.52,0,0,0,121.76,45.25ZM77.11,34.46a2.83,2.83,0,0,1,3.06-2.31A2.94,2.94,0,0,1,83,34.8a7.54,7.54,0,0,1,0,1v2.42H77.08A28.63,28.63,0,0,1,77.11,34.46ZM116,50.14H44.07a33.49,33.49,0,0,1,0-3.48A2.81,2.81,0,0,1,47,44.24c2.33,0,4.66,0,7,0h58.35c2.62,0,3.66,1,3.66,3.64Z"/><path class="cls-1" d="M113.71,93.41V67.17c0-.35,0-.71,0-1.06a3,3,0,0,0-2.29-2.63,2.83,2.83,0,0,0-3.25,1.43,4.78,4.78,0,0,0-.42,2q0,25.62,0,51.25a11.74,11.74,0,0,1-.45,3.49c-1.21,3.9-4.6,6.21-9,6.22-5.85,0-11.69,0-17.53,0s-11.75,0-17.63,0c-5.43,0-9.35-3.89-9.36-9.16q0-26,0-52a3,3,0,1,0-6,0q0,25.83,0,51.64c0,9.07,6.49,15.58,15.58,15.59q17.43,0,34.87,0a16.57,16.57,0,0,0,3.23-.26,14.91,14.91,0,0,0,12.32-15C113.73,110.21,113.71,101.81,113.71,93.41Z"/><path class="cls-1" d="M62.68,118.8a3.05,3.05,0,0,0,2.54,3,3,3,0,0,0,3.31-2,5.32,5.32,0,0,0,.19-1.6q0-19.74,0-39.47a15.74,15.74,0,0,0-.1-2.38A2.94,2.94,0,0,0,65,74a3.09,3.09,0,0,0-2.31,3.23V97.92h0v11.4C62.67,112.48,62.65,115.64,62.68,118.8Z"/><path class="cls-1" d="M77.73,119.18a3,3,0,0,0,2.68,2.68,2.93,2.93,0,0,0,3.14-2.12,6,6,0,0,0,.16-1.52q0-13.45,0-26.91,0-7,0-14.08a3,3,0,0,0-2.87-3.3c-1.88-.07-3.14,1.23-3.14,3.29q0,10.35,0,20.69V118C77.71,118.41,77.7,118.8,77.73,119.18Z"/><path class="cls-1" d="M98.71,76.94a2.94,2.94,0,0,0-3.24-3c-1.66.09-2.75,1.38-2.75,3.29v41.28c0,.19,0,.38,0,.58a3,3,0,0,0,2,2.63A2.73,2.73,0,0,0,98,120.8a4.82,4.82,0,0,0,.73-2.39c.06-6.83,0-13.66,0-20.49h0v-15C98.72,80.9,98.75,78.92,98.71,76.94Z"/></g></g></svg>