<svg xmlns="http://www.w3.org/2000/svg" viewBox="0 0 160 160.07"><defs><style>.cls-1{fill:#2d71ba;}</style></defs><g id="Layer_2" data-name="Layer 2"><g id="Layer_1-2" data-name="Layer 1"><g id="y41YVc.tif"><g id="Group_3848" data-name="Group 3848"><path id="Path_5053" data-name="Path 5053" class="cls-1" d="M75.3,160.07c-3-.41-6.09-.71-9.1-1.25A78.45,78.45,0,0,1,20,132.9,77.31,77.31,0,0,1,.43,88.19c-2.05-20.89,3.24-39.88,16-56.59A77.79,77.79,0,0,1,63.54,1.78c19.22-4,37.55-1.19,54.86,8.1,1.06.57,2.09,1.17,3.12,1.78,2.72,1.6,3.6,4.3,2.19,6.73s-4.14,3-6.8,1.46a70.08,70.08,0,0,0-15.74-7.1C76.42,5.56,53.92,10,34.17,26.5,19.76,38.55,11.35,54.3,9.84,73c-2.35,29.13,9.25,51.81,33.88,67.5C55.42,148,68.53,151,82.42,150.62c31.44-.86,59.38-23.85,66.31-54.52a71.19,71.19,0,0,0-1.35-37c-.21-.7-.42-1.39-.6-2.1a4.63,4.63,0,0,1,3.09-5.77h.06a4.53,4.53,0,0,1,5.73,2.9,1.42,1.42,0,0,1,.07.22,103.35,103.35,0,0,1,2.64,10.1c.66,3.41.93,6.9,1.38,10.35.07.51.17,1,.25,1.51v8.44l-.39,3.38a80.25,80.25,0,0,1-65.84,70.71c-3,.53-6.06.84-9.09,1.24Z"/><path id="Path_5054" data-name="Path 5054" class="cls-1" d="M79.62,95.61c3.06-3.62,6.08-7.19,9.09-10.77l52.23-62c1.8-2.13,3.81-2.75,5.92-1.84a4.4,4.4,0,0,1,2.78,4.75,7.16,7.16,0,0,1-1.54,3.15q-21.73,25.92-43.55,51.77L84.21,104.78c-2.61,3.09-5.21,3.24-8.12.5Q57.86,88.17,39.65,71c-2-1.9-2.53-4.15-1.43-6.16A4.68,4.68,0,0,1,44.57,63l.39.23a16.08,16.08,0,0,1,1.76,1.53l32,30.07C79,95.08,79.26,95.31,79.62,95.61Z"/></g></g></g></g></svg>