<svg xmlns="http://www.w3.org/2000/svg" viewBox="0 0 30 30"><defs><style>.cls-1{fill:#969696;}</style></defs><g id="Layer_2" data-name="Layer 2"><g id="Layer_1-2" data-name="Layer 1"><g id="Group_784" data-name="Group 784"><g id="Group_955" data-name="Group 955"><path id="Path_1218" data-name="Path 1218" class="cls-1" d="M15,30A15,15,0,0,0,30,15h0A15,15,0,0,0,15,0h0a15,15,0,0,0,0,30ZM15,1.81a13.19,13.19,0,0,1,0,26.38h0A13.2,13.2,0,0,1,1.82,15v0A13.18,13.18,0,0,1,15,1.81Z"/><path id="Path_1219" data-name="Path 1219" class="cls-1" d="M8.42,20.3a.89.89,0,0,0-.07,1.28.91.91,0,0,0,1.28.07l.06-.06,3.88-3.88L15,16.29a.67.67,0,0,1,.14.15l2.63,2.62,2.55,2.55a.9.9,0,0,0,1.27,0h0l.1-.12a.92.92,0,0,0-.12-1.23l-4.43-4.43c-.28-.29-.58-.56-.87-.85l.12-.13,5.15-5.15a1.38,1.38,0,0,0,.28-.4.9.9,0,0,0-1.5-.95l-4.2,4.2L15,13.72l-.13-.12-2.45-2.44L9.68,8.42a.91.91,0,0,0-1.29-.07h0a.91.91,0,0,0-.07,1.28h0l.09.09,5.14,5.13a1.06,1.06,0,0,0,.15.15l-2.48,2.48Z"/></g></g></g></g></svg>