<svg xmlns="http://www.w3.org/2000/svg" width="19.979" height="20" viewBox="0 0 19.979 20">
    <g id="Layer_2" data-name="Layer 2">
        <g id="Layer_1-2" data-name="Layer 1">
            <path class="cls-1"
                  d="M17.35,3A10,10,0,0,0,14.6,1a10.53,10.53,0,0,0-3.43-1A11.18,11.18,0,0,0,8.52.1,10.54,10.54,0,0,0,4.93,1.28,9.58,9.58,0,0,0,1.62,4.2a8.54,8.54,0,0,0-1.56,4,8.37,8.37,0,0,0,0,2.18,8.47,8.47,0,0,0,1,3,9.12,9.12,0,0,0,2.31,2.75.25.25,0,0,1,.1.21V20l.08,0,3.61-1.86a.28.28,0,0,1,.18,0,10.74,10.74,0,0,0,2.19.34A10.53,10.53,0,0,0,13.11,18a10,10,0,0,0,4.37-2.65,8.74,8.74,0,0,0,2.4-4.71,8.37,8.37,0,0,0-.09-3.27A8.89,8.89,0,0,0,17.35,3Zm.23,10.91a8.87,8.87,0,0,1-3.75,2.93,9.48,9.48,0,0,1-2.93.73,9.71,9.71,0,0,1-3.56-.33.48.48,0,0,0-.37,0c-.83.43-1.66.86-2.5,1.28l-.12.06V17.48c0-.54,0-1.08,0-1.61a.19.19,0,0,0-.07-.14,8.58,8.58,0,0,1-2.34-2.61A7.42,7.42,0,0,1,.92,10a7.74,7.74,0,0,1,2-6A9,9,0,0,1,6.92,1.35,9.77,9.77,0,0,1,10.6.88,9.38,9.38,0,0,1,16.08,3a8.17,8.17,0,0,1,2.54,3.49,7.34,7.34,0,0,1,.5,2.62A7.7,7.7,0,0,1,17.58,13.88Z" fill="#88b1c7"/>
            <path class="cls-1" d="M11.57,9.28,9,6.75,3.82,12.16v0L8.48,9.61,11,12.26l5.12-5.47,0,0Z" fill="#88b1c7"/>
        </g>
    </g>
</svg>