<svg xmlns="http://www.w3.org/2000/svg" width="18.37" height="20" viewBox="0 0 18.37 20">
    <g id="Group_5047" data-name="Group 5047" transform="translate(1237.083 -517.182)">
        <path id="Path_6341" data-name="Path 6341" d="M-1218.766,521.343a3.161,3.161,0,0,0-.492-1.166,2.91,2.91,0,0,0-1.117-1.011,2.96,2.96,0,0,0-1.42-.345h-.7a.944.944,0,0,1-.016-.118,4.959,4.959,0,0,0-.021-.68,1.009,1.009,0,0,0-1.1-.837,1.016,1.016,0,0,0-.922,1.019c0,.2,0,.4,0,.6-.065.006-.107.013-.149.013q-3.19,0-6.38,0c-.123,0-.158-.038-.156-.158a3.336,3.336,0,0,0-.024-.679,1.008,1.008,0,0,0-1.1-.8,1.023,1.023,0,0,0-.916,1.009c0,.2,0,.4,0,.626a6.927,6.927,0,0,0-.723,0,4.919,4.919,0,0,0-1,.171,3.065,3.065,0,0,0-2.071,2.936v10.78c0,.448-.012.9.008,1.345a3.971,3.971,0,0,0,.118.891A3.042,3.042,0,0,0-1234,537.18c.915,0,1.829,0,2.744,0h9.433a2.988,2.988,0,0,0,2.318-1.019,2.926,2.926,0,0,0,.778-2.15c-.017-.436.016-.873.016-1.31q0-5.43,0-10.861A2.987,2.987,0,0,0-1218.766,521.343Zm-1.1,12.707a1.9,1.9,0,0,1-1.958,1.977q-6.072.006-12.145,0a1.9,1.9,0,0,1-1.95-1.968c0-1.873,0-3.745,0-5.618,0-.492-.017-.983-.017-1.475,0-.513.018-1.025.014-1.537,0-.157.042-.2.2-.2q3.467.008,6.933,0h8.7c.223,0,.224,0,.224.215Q-1219.868,529.749-1219.869,534.05Zm0-9.977h-16.054V523.9c0-.66,0-1.32,0-1.98a1.915,1.915,0,0,1,1.94-1.951c.189,0,.379,0,.568,0,.1,0,.133.033.132.132,0,.308-.007.617,0,.925a1.018,1.018,0,0,0,.905.987,1.025,1.025,0,0,0,1.115-.787,1.4,1.4,0,0,0,.024-.29c0-.271.006-.541,0-.812,0-.123.04-.157.159-.156.632.005,1.264,0,1.9,0h2.838c.541,0,1.081,0,1.621,0,.141,0,.174.049.17.179-.008.281-.006.563,0,.844a1.013,1.013,0,0,0,1.031,1.027,1.018,1.018,0,0,0,1.014-1.029c.005-.292,0-.585.005-.877,0-.047.055-.134.084-.134a3.925,3.925,0,0,1,1.208.082,1.911,1.911,0,0,1,1.341,1.77C-1219.862,522.571-1219.869,523.312-1219.869,524.073Z" fill="#7db1c9"/>
        <path id="Path_6342" data-name="Path 6342" d="M-1230.38,526.416c-.116,0-.132.054-.132.149,0,.579,0,1.158,0,1.737,0,.042.009.083.014.131h2v-2a.553.553,0,0,0-.087-.013C-1229.179,526.417-1229.78,526.42-1230.38,526.416Z" fill="#7db1c9"/>
        <path id="Path_6343" data-name="Path 6343" d="M-1225.284,528.378c0-.616,0-1.233,0-1.85,0-.1-.056-.111-.136-.111h-1.785a.7.7,0,0,0-.1.014v2h1.993A.214.214,0,0,0-1225.284,528.378Z" fill="#7db1c9"/>
        <path id="Path_6344" data-name="Path 6344" d="M-1230.335,531.647c.562,0,1.124,0,1.687,0,.052,0,.1-.008.152-.011v-2.006h-2.005c0,.059-.01.1-.01.144,0,.568,0,1.135,0,1.7C-1230.515,531.615-1230.465,531.648-1230.335,531.647Z" fill="#7db1c9"/>
        <path id="Path_6345" data-name="Path 6345" d="M-1225.381,531.638c.034,0,.095-.08.1-.123.006-.6,0-1.2,0-1.8a.53.53,0,0,0-.015-.083h-2v1.991c.016.008.026.016.036.016C-1226.635,531.64-1226.008,531.644-1225.381,531.638Z" fill="#7db1c9"/>
        <path id="Path_6346" data-name="Path 6346" d="M-1230.5,534.835h2.006v-2h-2.006Z" fill="#7db1c9"/>
        <path id="Path_6347" data-name="Path 6347" d="M-1225.427,532.822c-.291,0-.582,0-.873,0h-.995v2.008h1.995a.3.3,0,0,0,.016-.06c0-.611,0-1.222,0-1.832C-1225.279,532.828-1225.343,532.822-1225.427,532.822Z" fill="#7db1c9"/>
        <path id="Path_6348" data-name="Path 6348" d="M-1224.106,528v.427h2.011v-2.01c-.073,0-.132,0-.19,0-.549.008-1.1.021-1.647.021-.149,0-.179.055-.177.191C-1224.1,527.087-1224.106,527.544-1224.106,528Z" fill="#7db1c9"/>
        <path id="Path_6349" data-name="Path 6349" d="M-1231.861,529.619c-.562.006-1.124,0-1.686,0-.047,0-.094.007-.146.011a.586.586,0,0,0-.014.086c0,.6,0,1.2,0,1.8,0,.121.063.127.153.126.433,0,.865,0,1.3,0h.565c0-.069.009-.112.009-.155,0-.567,0-1.135,0-1.7C-1231.681,529.649-1231.731,529.618-1231.861,529.619Z" fill="#7db1c9"/>
        <path id="Path_6350" data-name="Path 6350" d="M-1222.223,529.62l-.215,0c-.214,0-.429,0-.644,0s-.446,0-.669,0l-.223,0c-.1,0-.133.033-.133.13q0,.883,0,1.767c0,.1.035.131.133.13q.875-.006,1.75,0c.1,0,.143-.029.142-.138q-.006-.876,0-1.751C-1222.081,529.649-1222.119,529.618-1222.223,529.62Z" fill="#7db1c9"/>
        <path id="Path_6351" data-name="Path 6351" d="M-1223.082,529.622c.215,0,.43,0,.644,0-.214,0-.429,0-.644,0s-.446,0-.669,0C-1223.528,529.624-1223.305,529.622-1223.082,529.622Z" fill="#7db1c9"/>
        <path id="Path_6352" data-name="Path 6352" d="M-1231.8,532.829q-.9-.01-1.8,0a.151.151,0,0,0-.1.1c-.006.627,0,1.255,0,1.912.662,0,1.3,0,1.946,0,.025,0,.071-.064.071-.1,0-.6.006-1.2,0-1.8A.162.162,0,0,0-1231.8,532.829Z" fill="#7db1c9"/>
    </g>
</svg>
