<svg xmlns="http://www.w3.org/2000/svg" width="16.053" height="18.64" viewBox="0 0 16.053 20.64">
  <g id="Layer_2" data-name="Layer 2" transform="translate(0.002)">
    <g id="Layer_1" data-name="Layer 1" transform="translate(-0.002)">
      <path id="Path_3671" data-name="Path 3671" d="M8.649,0H8.418V10.9c0,.821,0,1.643-.043,2.464a2.7,2.7,0,0,1-.043.414,1.949,1.949,0,0,1-.245.545A2.644,2.644,0,0,1,6.7,15.5a2.783,2.783,0,0,1-.814.145,2.146,2.146,0,0,1-.93-.131A2.691,2.691,0,0,1,3.38,13.984a1.859,1.859,0,0,1-.159-.625c0-.138,0-.276,0-.422V12.48a1.973,1.973,0,0,1,.252-.727,2.573,2.573,0,0,1,1.442-1.265,2.7,2.7,0,0,1,1.679,0H6.66V7.036a5.348,5.348,0,0,0-.757-.08,5.52,5.52,0,0,0-1.542.167A5.843,5.843,0,0,0,.3,10.9,4.86,4.86,0,0,0,0,12.16q0,.327,0,.654a5.591,5.591,0,0,0,.086,1.1,5.845,5.845,0,0,0,3.878,4.455,5.4,5.4,0,0,0,1.175.262,7.755,7.755,0,0,0,.822,0,6.049,6.049,0,0,0,.959-.109,5.844,5.844,0,0,0,4.649-5.582V6.258a7.991,7.991,0,0,0,4.483,1.454V4.637h-.036a2.777,2.777,0,0,1-.548-.087A6.105,6.105,0,0,1,13.81,4a4.19,4.19,0,0,1-1.478-1.279A5.044,5.044,0,0,1,11.453,0Z" transform="translate(0.002)" fill="#75b0cc"/>
    </g>
  </g>
</svg>
