<svg xmlns="http://www.w3.org/2000/svg" width="20" height="16.815" viewBox="0 0 20 16.815">
  <g id="Group_3295" data-name="Group 3295" transform="translate(-420.5 -282.996)">
    <path id="Path_4302" data-name="Path 4302" d="M435.479,298.944a.233.233,0,0,0,.159-.245c-.007-1.021.012-2.042-.011-3.063a3.67,3.67,0,0,0-3.278-3.5,25.121,25.121,0,0,0-3.4,0,3.645,3.645,0,0,0-3.263,3.354c-.053,1.091-.026,2.186-.025,3.279a.26.26,0,0,0,.144.192,17.473,17.473,0,0,0,3.212.72c.423.052.847.09,1.271.135h1.391c.38-.044.761-.08,1.139-.133A9.118,9.118,0,0,0,435.479,298.944Z" fill="#2f83b9"/>
    <path id="Path_4303" data-name="Path 4303" d="M436.826,289.067c-.789-.015-1.579,0-2.369,0a.583.583,0,0,0-.105.011,5.2,5.2,0,0,1-1.108,2.505,4.478,4.478,0,0,1,3.112,4.668v.51a1.913,1.913,0,0,0,.217,0c.688-.092,1.386-.139,2.059-.293.636-.145,1.247-.4,1.868-.61v-3.391a1.6,1.6,0,0,1-.043-.165A3.727,3.727,0,0,0,436.826,289.067Z" fill="#2f83b9"/>
    <path id="Path_4304" data-name="Path 4304" d="M426.773,289.064c-.862,0-1.724-.012-2.586,0a3.735,3.735,0,0,0-3.681,3.717c-.008.97,0,1.941-.006,2.911,0,.15.041.218.188.252.9.209,1.8.444,2.7.63.5.1,1.013.125,1.559.188-.182-2.506.765-4.3,3.152-5.217a3.693,3.693,0,0,1-1.092-2.468C426.916,289.073,426.844,289.065,426.773,289.064Z" fill="#2f83b9"/>
    <path id="Path_4305" data-name="Path 4305" d="M430.662,286.027a2.92,2.92,0,1,0,2.915,2.918A2.917,2.917,0,0,0,430.662,286.027Z" fill="#2f83b9"/>
    <path id="Path_4306" data-name="Path 4306" d="M423.634,288.161a2.821,2.821,0,0,0,3.173.376.482.482,0,0,0,.3-.38,3.451,3.451,0,0,1,1.157-1.941.424.424,0,0,0,.159-.372A2.918,2.918,0,0,0,425.505,283c-.065,0-.131,0-.2,0s-.143.016-.215.028a2.8,2.8,0,0,0-2.4,2.083A2.746,2.746,0,0,0,423.634,288.161Z" fill="#2f83b9"/>
    <path id="Path_4307" data-name="Path 4307" d="M435.014,283.035a2.939,2.939,0,0,0-2.429,2.643.3.3,0,0,0,.145.3,3.549,3.549,0,0,1,1.5,2.4.307.307,0,0,0,.221.275,2.928,2.928,0,0,0,3.973-2.736c-.012-.151-.013-.3-.039-.453A2.919,2.919,0,0,0,435.014,283.035Z" fill="#2f83b9"/>
  </g>
</svg>
