<svg xmlns="http://www.w3.org/2000/svg" width="160" height="160.07" viewBox="0 0 160 160.07">
  <g id="Group_3848" data-name="Group 3848" transform="translate(-640 -250)">
    <path id="Path_5053" data-name="Path 5053" d="M715.3,410.07c-3.035-.409-6.088-.71-9.1-1.245A78.54,78.54,0,0,1,660.023,382.9a77.347,77.347,0,0,1-19.6-44.712c-2.041-20.882,3.247-39.881,16-56.587a77.789,77.789,0,0,1,47.113-29.815c19.221-4.029,37.551-1.195,54.864,8.1,1.054.566,2.088,1.17,3.12,1.776,2.722,1.6,3.6,4.3,2.187,6.725-1.37,2.359-4.135,3.016-6.8,1.461a70.152,70.152,0,0,0-15.743-7.1c-24.743-7.191-47.246-2.77-67,13.751-14.411,12.053-22.821,27.8-24.328,46.513-2.348,29.134,9.25,51.807,33.877,67.5,11.709,7.463,24.817,10.486,38.7,10.107,31.44-.858,59.384-23.849,66.319-54.517a71.218,71.218,0,0,0-1.356-37.007c-.211-.7-.423-1.394-.6-2.1a4.629,4.629,0,0,1,3.148-5.787,4.545,4.545,0,0,1,5.8,3.121,102.946,102.946,0,0,1,2.641,10.1c.666,3.411.937,6.9,1.387,10.352.066.507.161,1.009.242,1.514v8.439c-.128,1.125-.258,2.249-.383,3.374a80.261,80.261,0,0,1-65.843,70.714c-3.011.533-6.061.835-9.094,1.244Z" fill="#0071c1"/>
    <path id="Path_5054" data-name="Path 5054" d="M719.618,345.615c3.056-3.621,6.077-7.195,9.092-10.775q26.116-31.014,52.232-62.029c1.791-2.127,3.809-2.751,5.917-1.843a4.407,4.407,0,0,1,2.774,4.757,7.171,7.171,0,0,1-1.532,3.151q-21.737,25.918-43.556,51.767-10.167,12.069-20.339,24.134c-2.61,3.09-5.205,3.246-8.121.508q-18.227-17.115-36.439-34.243c-2.02-1.9-2.525-4.152-1.427-6.159a4.681,4.681,0,0,1,6.735-1.638,15.239,15.239,0,0,1,1.768,1.531q16.005,15.03,32,30.066C718.982,345.084,719.26,345.307,719.618,345.615Z" fill="#0071c1"/>
  </g>
</svg>
