<svg xmlns="http://www.w3.org/2000/svg" width="18.457" height="20" viewBox="0 0 18.457 20">
  <g id="Group_3299" data-name="Group 3299" transform="translate(-665.176 -281.404)">
    <path id="Path_4309" data-name="Path 4309" d="M682.766,286.269a.453.453,0,0,0,.008-.871c-2.461-1.229-4.919-2.464-7.384-3.683a6.777,6.777,0,0,0-.981-.311,7.38,7.38,0,0,0-1.039.337c-2.443,1.207-4.877,2.433-7.315,3.649-.191.095-.339.212-.341.439a.485.485,0,0,0,.336.441q3.695,1.844,7.384,3.692a2.038,2.038,0,0,0,1.926.009Q679.063,288.12,682.766,286.269Z" fill="#2f83b9"/>
    <path id="Path_4310" data-name="Path 4310" d="M672.9,291.373q-3.5-1.612-7-3.232c-.437-.2-.724-.013-.724.471q0,3.914,0,7.827a1.823,1.823,0,0,0,1.125,1.779q3.345,1.556,6.7,3.094c.474.218.742.043.742-.485q0-1.023,0-2.047v-2.047q0-1,0-2.008t.006-2.008A1.344,1.344,0,0,0,672.9,291.373Z" fill="#2f83b9"/>
    <path id="Path_4311" data-name="Path 4311" d="M673.741,298.78v-2.047q0-1,0-2.008,0,1,0,2.008Z" fill="#2f83b9"/>
    <path id="Path_4312" data-name="Path 4312" d="M683.631,288.654c0-.545-.264-.718-.753-.492q-3.489,1.608-6.978,3.217a1.318,1.318,0,0,0-.835,1.3q0,1.011,0,2.021t0,2.022V298.8q0,1.043,0,2.085c0,.241.071.446.316.491a.826.826,0,0,0,.461-.086q3.308-1.514,6.607-3.043a1.88,1.88,0,0,0,1.184-1.848C683.628,293.82,683.632,291.237,683.631,288.654Z" fill="#2f83b9"/>
    <path id="Path_4313" data-name="Path 4313" d="M675.068,294.7q0,1.011,0,2.022v0Q675.067,295.708,675.068,294.7Z" fill="#2f83b9"/>
  </g>
</svg>
