<svg xmlns="http://www.w3.org/2000/svg" width="20" height="19.613" viewBox="0 0 20 19.613">
  <g id="Group_3316" data-name="Group 3316" transform="translate(-420.5 -249.389)">
    <path id="Path_4320" data-name="Path 4320" d="M422.963,266.257c.413-.01.826,0,1.239,0h.222V261.29a1.21,1.21,0,0,1,1.322-1.324q4.754,0,9.507,0a1.206,1.206,0,0,1,1.318,1.308v4.951a.289.289,0,0,0,.071.023c.5,0,.993.007,1.49,0a.311.311,0,0,0,.193-.1,2.127,2.127,0,0,0,.523-2.117c-.561-2-1.145-3.99-1.732-5.981a1.953,1.953,0,0,0-1.833-1.417c-.671,0-1.342.006-2.013,0a.258.258,0,0,0-.258.152c-.233.409-.475.813-.714,1.218-.163.276-.327.551-.5.848l-1.316-2.227-.655,1.108-.661,1.117c-.055-.091-.1-.162-.141-.233-.361-.611-.724-1.221-1.079-1.835a.258.258,0,0,0-.26-.148c-.593.007-1.189.031-1.781,0a2.018,2.018,0,0,0-2.056,1.514c-.561,1.952-1.136,3.9-1.69,5.852a2.179,2.179,0,0,0,.474,2.115A.392.392,0,0,0,422.963,266.257Z" fill="#2f83b9"/>
    <path id="Path_4321" data-name="Path 4321" d="M435.227,261.009h-9.449c-.3,0-.31.013-.31.3v4.929h10.059V261.3C435.527,261.026,435.51,261.009,435.227,261.009Z" fill="#2f83b9"/>
    <path id="Path_4322" data-name="Path 4322" d="M430.462,256.35a3.481,3.481,0,1,0-3.445-3.511A3.5,3.5,0,0,0,430.462,256.35Z" fill="#2f83b9"/>
    <path id="Path_4323" data-name="Path 4323" d="M420.5,269h20v-1.689h-20Z" fill="#2f83b9"/>
  </g>
</svg>
