<svg xmlns="http://www.w3.org/2000/svg" width="16.57" height="18" viewBox="0 0 16.57 18">
    <g id="Group_3535" data-name="Group 3535" transform="translate(-345.458 -68.597)">
        <g id="Group_3534" data-name="Group 3534">
            <path id="Path_4530" data-name="Path 4530" d="M348.276,84.049c0-.263,0-.526,0-.789,0,.263,0,.526,0,.789s0,.514,0,.77C348.272,84.563,348.276,84.305,348.276,84.049Z" fill="#fff"/>
            <path id="Path_4531" data-name="Path 4531" d="M355.381,78.787c0-.257,0-.515,0-.772s0-.526,0-.789c0,.263,0,.526,0,.789S355.379,78.53,355.381,78.787Z" fill="#fff"/>
            <path id="Path_4532" data-name="Path 4532" d="M360.915,81.79c0-.263,0-.526,0-.789,0-.131,0-.263,0-.395,0,.132,0,.264,0,.395C360.916,81.264,360.918,81.527,360.915,81.79Z" fill="#fff"/>
            <path id="Path_4533" data-name="Path 4533" d="M348.276,75.187c0,.257-.005.514,0,.771-.006-.257,0-.514,0-.771s0-.526,0-.789C348.274,74.661,348.276,74.924,348.276,75.187Z" fill="#fff"/>
            <path id="Path_4534" data-name="Path 4534" d="M345.811,86.58h4.312v-.2q0-8.013,0-16.028a.213.213,0,0,0-.169-.243c-1.367-.486-2.732-.98-4.1-1.471-.292-.1-.4-.027-.4.289v17.3C345.458,86.517,345.522,86.58,345.811,86.58Zm2.261-1.555c-.263-.005-.525-.005-.788,0-.148,0-.2-.066-.2-.208,0-.52,0-1.039,0-1.559,0-.142.06-.21.206-.207.263,0,.525,0,.788,0,.148,0,.2.068.2.209,0,.263,0,.526,0,.789s0,.514,0,.77C348.279,84.965,348.218,85.027,348.072,85.025Zm-.99-10.623c0-.133.053-.2.193-.2.269,0,.537,0,.806,0,.138,0,.2.063.2.2,0,.263,0,.526,0,.789s-.005.514,0,.771c0,.151-.055.222-.21.219-.263,0-.526,0-.788,0-.137,0-.2-.062-.2-.2Q347.084,75.191,347.082,74.4Zm0,2.836c0-.143.059-.207.207-.2q.393.009.788,0c.15,0,.2.065.2.207,0,.257,0,.514,0,.771s0,.526,0,.788c0,.144-.058.209-.205.206q-.395-.008-.788,0c-.15,0-.2-.07-.2-.21Q347.084,78.017,347.081,77.238Zm.213,2.823c.257.006.514.005.771,0,.142,0,.212.052.212.2,0,.525,0,1.051,0,1.576,0,.134-.054.2-.194.2-.269,0-.537,0-.806,0-.139,0-.2-.064-.194-.2,0-.263,0-.526,0-.788s0-.514,0-.771C347.079,80.128,347.138,80.057,347.294,80.061Z" fill="#fff"/>
            <path id="Path_4535" data-name="Path 4535" d="M354.244,75.879v4.978q0,2.634,0,5.27c0,.31.141.449.451.453l1.44.017h.433c0-.82,0-1.62,0-2.42a.535.535,0,0,1,.533-.592q1.029-.018,2.06,0a.531.531,0,0,1,.536.555c.006.812,0,1.623,0,2.457h.17c.549-.006,1.1-.013,1.646-.017.385,0,.51-.127.51-.518V73.686c0-.387-.221-.546-.6-.431l-2.622.807c-.266.082-.269.086-.269.373V82.2h-.814V74.781c0-.314-.069-.363-.374-.27l-2.72.839C354.309,75.451,354.244,75.538,354.244,75.879Zm5.407,1.309c0-.2.083-.283.28-.285.24,0,.481,0,.721,0a.232.232,0,0,1,.263.264c0,.269,0,.537,0,.806,0,.252,0,.5,0,.755,0,.223-.078.3-.295.305s-.458,0-.687,0c-.2,0-.282-.085-.283-.285Q359.647,77.969,359.651,77.188Zm0,3.023c0-.191.087-.274.274-.277.24,0,.48,0,.72,0,.187,0,.268.088.27.278,0,.131,0,.263,0,.394s0,.264,0,.395c0,.263,0,.526,0,.789,0,.19-.083.272-.271.274-.24,0-.48,0-.72,0-.187,0-.271-.084-.273-.276C359.647,81.263,359.648,80.737,359.651,80.211Zm-3.005,1.6c0,.206-.089.286-.3.288-.229,0-.458,0-.687,0-.2,0-.278-.086-.28-.286,0-.263,0-.526,0-.79s0-.5,0-.755c0-.222.079-.3.3-.3s.447,0,.67,0,.3.079.3.286Q356.652,81.026,356.646,81.807Zm-1.265-4.581c0-.19.083-.27.275-.274q.36-.006.72,0c.18,0,.268.084.269.263.006.532.005,1.063,0,1.595,0,.191-.087.269-.277.271-.234,0-.469,0-.7,0-.209,0-.283-.079-.285-.295,0-.257,0-.515,0-.772S355.378,77.489,355.381,77.226Z" fill="#fff"/>
            <path id="Path_4536" data-name="Path 4536" d="M353.443,84.253c-.209,0-.38-.006-.55,0s-.229-.055-.227-.22q.008-.771,0-1.544c0-.158.066-.215.218-.21.176.007.352,0,.533,0V81.263c-.188,0-.364,0-.54,0-.143,0-.211-.054-.21-.2q0-.789,0-1.578c0-.139.061-.2.2-.2.182,0,.363,0,.555,0V78.227c-.182,0-.358,0-.534,0-.15.006-.22-.048-.219-.207.005-.521,0-1.041,0-1.562,0-.147.062-.208.206-.2.181.005.362,0,.556,0,0-.171,0-.319,0-.467a1.2,1.2,0,0,1,.886-1.187c.376-.119.753-.236,1.131-.346a.173.173,0,0,0,.151-.2c-.008-.486,0-.973,0-1.459,0-.523.013-.457-.426-.612-1.347-.476-2.689-.965-4.033-1.448-.063-.023-.127-.04-.2-.062V86.566h2.5Z" fill="#fff"/>
        </g>
    </g>
</svg>
