<svg xmlns="http://www.w3.org/2000/svg" width="22" height="22.001" viewBox="0 0 22 22.001">
    <path id="Path_70" data-name="Path 70" d="M1286.656,764.17q0,1.422,0,2.845v0Q1286.656,765.591,1286.656,764.17Z" transform="translate(-1275.971 -753.551)" fill="#989898"/>
    <path id="Path_71" data-name="Path 71" d="M1291.606,762.787q0,1.8,0,3.609c0,1.155,0,2.309,0,3.464,0-1.155,0-2.309,0-3.464Q1291.607,764.591,1291.606,762.787Z" transform="translate(-1275.971 -753.551)" fill="#989898"/>
    <path id="Path_72" data-name="Path 72" d="M1286.988,753.551a11,11,0,1,0,10.98,10.747A11,11,0,0,0,1286.988,753.551Zm-.056,21.039a10.04,10.04,0,1,1,10.081-10.039A10.044,10.044,0,0,1,1286.932,774.59Z" transform="translate(-1275.971 -753.551)" fill="#989898"/>
    <path id="Path_73" data-name="Path 73" d="M1292.712,759.774a1.234,1.234,0,0,0-1.258-.97c-1.023,0-2.046,0-3.068,0h-.181c0-.169.005-.317,0-.465a1.234,1.234,0,0,0-2.467.024c0,.14,0,.279,0,.442h-.19c-1.018,0-2.036,0-3.054,0a1.236,1.236,0,0,0-1.3,1.291c0,.223,0,.447,0,.671,0,.371.145.514.52.514h10.495c.044,0,.088,0,.131,0a.406.406,0,0,0,.4-.417c.005-.162.005-.325,0-.487A3.341,3.341,0,0,0,1292.712,759.774Zm-6.139-1.484a.391.391,0,0,1,.422-.318.406.406,0,0,1,.385.364c0,.044,0,.088,0,.132,0,.1,0,.209,0,.331h-.814A4.108,4.108,0,0,1,1286.573,758.29Zm5.346,2.156h-9.888c0-.166-.012-.324,0-.479a.387.387,0,0,1,.4-.332c.321,0,.641,0,.962,0h8.022c.361,0,.5.143.5.5Z" transform="translate(-1275.971 -753.551)" fill="#989898"/>
    <path id="Path_74" data-name="Path 74" d="M1291.606,766.4q0-1.8,0-3.609a1.4,1.4,0,0,0-.005-.145.4.4,0,0,0-.313-.362.391.391,0,0,0-.448.2.653.653,0,0,0-.057.277q0,3.523-.006,7.047a1.647,1.647,0,0,1-.061.48,1.227,1.227,0,0,1-1.239.856c-.8,0-1.607,0-2.41,0s-1.616,0-2.424,0a1.236,1.236,0,0,1-1.286-1.26q0-3.576,0-7.152a.414.414,0,1,0-.825,0q0,3.549,0,7.1a2.065,2.065,0,0,0,2.141,2.144q2.4,0,4.795,0a2.279,2.279,0,0,0,.445-.035,2.05,2.05,0,0,0,1.694-2.067C1291.609,768.705,1291.606,767.551,1291.606,766.4Z" transform="translate(-1275.971 -753.551)" fill="#989898"/>
    <path id="Path_75" data-name="Path 75" d="M1284.59,769.887a.417.417,0,0,0,.349.418.409.409,0,0,0,.455-.276.745.745,0,0,0,.026-.221q0-2.713,0-5.427a1.984,1.984,0,0,0-.014-.328.4.4,0,0,0-.5-.327.424.424,0,0,0-.317.444q0,1.424,0,2.845h0v1.568C1284.589,769.017,1284.586,769.452,1284.59,769.887Z" transform="translate(-1275.971 -753.551)" fill="#989898"/>
    <path id="Path_76" data-name="Path 76" d="M1286.659,769.938a.411.411,0,0,0,.369.37.4.4,0,0,0,.431-.293.8.8,0,0,0,.022-.208q0-1.85,0-3.7,0-.968,0-1.936a.414.414,0,0,0-.4-.453.408.408,0,0,0-.432.453q0,1.422,0,2.845v2.765C1286.656,769.833,1286.654,769.886,1286.659,769.938Z" transform="translate(-1275.971 -753.551)" fill="#989898"/>
    <path id="Path_77" data-name="Path 77" d="M1289.543,764.131a.4.4,0,0,0-.445-.413.408.408,0,0,0-.378.452v5.677c0,.026,0,.052,0,.079a.409.409,0,0,0,.281.362.375.375,0,0,0,.437-.126.643.643,0,0,0,.1-.329c.008-.939.005-1.879.005-2.818h0v-2.068C1289.545,764.675,1289.549,764.4,1289.543,764.131Z" transform="translate(-1275.971 -753.551)" fill="#989898"/>
</svg>
