<svg xmlns="http://www.w3.org/2000/svg" width="20" height="20" viewBox="0 0 20 20">
    <g id="Group_5056" data-name="Group 5056" transform="translate(1237.897 -852.52)">
        <g id="Rectangle_2993" data-name="Rectangle 2993" transform="translate(-1237.897 852.52)" fill="none" stroke="#80aec8" stroke-miterlimit="10" stroke-width="1">
            <rect width="20" height="20" rx="10" stroke="none"/>
            <rect x="0.5" y="0.5" width="19" height="19" rx="9.5" fill="none"/>
        </g>
        <g id="Group_5055" data-name="Group 5055">
            <path id="Path_6391" data-name="Path 6391" d="M-1223.771,857.056a1.047,1.047,0,0,0-1.155.348,4.2,4.2,0,0,0-.287.423q-1.282,2.122-2.562,4.246c-.015.025-.032.048-.053.077l-.058-.086q-1.323-2.073-2.646-4.146c-.129-.2-.276-.392-.425-.58a.882.882,0,0,0-.61-.325.88.88,0,0,0-1,.616,1.038,1.038,0,0,0,.075.791c.075.141.155.281.241.415q1.227,1.93,2.456,3.858c.02.031.038.063.065.109h-.128c-.3,0-.606,0-.909,0a1.851,1.851,0,0,0-.707.115.632.632,0,0,0-.406.456.663.663,0,0,0,.463.832,2.459,2.459,0,0,0,.646.094c.567.012,1.135,0,1.7,0h.128v1.166h-.117c-.575,0-1.15-.01-1.724.005a2.46,2.46,0,0,0-.665.108.618.618,0,0,0-.45.653.608.608,0,0,0,.463.632,2.583,2.583,0,0,0,.655.1c.574.013,1.149,0,1.724,0h.121c0,.054,0,.095,0,.136,0,.278,0,.557.016.835a1.951,1.951,0,0,0,.236.868,1.019,1.019,0,0,0,1.711-.027,1.618,1.618,0,0,0,.176-.519c.041-.387.044-.777.062-1.166,0-.04,0-.081,0-.127h1.864a1.645,1.645,0,0,0,.741-.144.6.6,0,0,0,.345-.445.668.668,0,0,0-.5-.827,2.515,2.515,0,0,0-.617-.083c-.571-.011-1.142,0-1.714,0h-.112V864.3h.137c.613,0,1.226,0,1.839-.005a1.306,1.306,0,0,0,.671-.166.679.679,0,0,0-.024-1.167,1.463,1.463,0,0,0-.548-.146c-.381-.025-.765-.014-1.148-.018h-.127c.027-.049.044-.082.063-.114q1.144-1.888,2.289-3.777a4.23,4.23,0,0,0,.3-.582A.9.9,0,0,0-1223.771,857.056Z" fill="#80aec8"/>
        </g>
    </g>
</svg>
