<svg xmlns="http://www.w3.org/2000/svg" width="19.979" height="20" viewBox="0 0 19.979 20">
  <g id="Group_3317" data-name="Group 3317" transform="translate(-664.415 -312.52)">
    <path id="Path_4324" data-name="Path 4324" d="M675.194,319.548a.53.53,0,0,1,.6-.537c.341,0,.681,0,1.021,0,.053,0,.105,0,.156-.006v-1.8a.3.3,0,0,0-.063-.014c-.606,0-1.212-.026-1.817,0a2.031,2.031,0,0,0-2.112,1.957,15.019,15.019,0,0,0-.033,1.56c0,.063,0,.126,0,.207h-1.129V322.8h1.13v5.746h2.246v-5.753H676.8c.065-.628.128-1.243.192-1.877h-1.807C675.189,320.445,675.174,320,675.194,319.548Z" fill="#2f83b9"/>
    <g id="Path_4325" data-name="Path 4325" fill="none" stroke-miterlimit="10">
      <path d="M674.429,312.52a10,10,0,1,0,9.965,10.025A10,10,0,0,0,674.429,312.52Z" stroke="none"/>
      <path d="M 674.4197387695312 313.6199951171875 C 669.5114135742188 313.6199951171875 665.5167846679688 317.6082153320312 665.5149536132812 322.5106201171875 C 665.5123291015625 327.4170227050781 669.4893188476562 331.4137573242188 674.3817138671875 331.4199829101562 L 674.3919677734375 331.4199829101562 C 679.2943725585938 331.4199829101562 683.2877807617188 327.4380798339844 683.2940063476562 322.5436096191406 C 683.2969970703125 320.16552734375 682.3749389648438 317.9265441894531 680.6976318359375 316.2391052246094 C 679.0213623046875 314.552734375 676.794677734375 313.62255859375 674.4290161132812 313.6199951171875 L 674.4197387695312 313.6199951171875 M 674.4197998046875 312.5199890136719 C 674.4228515625 312.5199890136719 674.4259643554688 312.5199890136719 674.4290161132812 312.5199890136719 C 679.9320068359375 312.5260009765625 684.4010009765625 317.0220031738281 684.3939819335938 322.5450134277344 C 684.3870239257812 328.0509643554688 679.9034423828125 332.5199890136719 674.3919677734375 332.5199890136719 C 674.387939453125 332.5199890136719 674.383056640625 332.5199890136719 674.3790283203125 332.5199890136719 C 668.8809814453125 332.5130004882812 664.4119873046875 328.0230102539062 664.4149780273438 322.510009765625 C 664.4169921875 316.9920349121094 668.8989868164062 312.5199279785156 674.4197998046875 312.5199890136719 Z" stroke="none" fill="#2f83b9"/>
    </g>
  </g>
</svg>
