<?xml version="1.0"?>
<svg xmlns="http://www.w3.org/2000/svg" width="20" height="16.241" viewBox="0 0 20 16.241">
    <path id="Path_799" d="M943.205,487.485a9.547,9.547,0,0,0,1.865.182,10.071,10.071,0,0,0,3.983-.845,10.072,10.072,0,0,1-3.984.845A9.544,9.544,0,0,1,943.205,487.485Z" transform="translate(-935.06 -473.298)" fill="#ccc"/>
    <path id="Path_800" d="M938.517,485.33c.335.245.681.473,1.032.717l-1.662,1.658c-.253.253-.509.5-.758.76a.623.623,0,1,0,.882.88c.057-.053.111-.11.166-.165l11.039-11.039c1.233-1.233,2.469-2.463,3.7-3.7a1,1,0,0,0,.25-.444.575.575,0,0,0-.332-.626.615.615,0,0,0-.747.143q-1.264,1.262-2.525,2.526a1.085,1.085,0,0,0-.118.181,1.493,1.493,0,0,0-.224-.118,10.021,10.021,0,0,0-3.958-.924,10.207,10.207,0,0,0-5.24,1.355,16.8,16.8,0,0,0-4.346,3.61,2.351,2.351,0,0,0-.611,1.045v.468a3.8,3.8,0,0,0,.39.772A17.255,17.255,0,0,0,938.517,485.33Zm4.378-2.691a2.476,2.476,0,0,1,3.38-3.381Zm-6.488-1.435a15.1,15.1,0,0,1,4.664-3.813,8.832,8.832,0,0,1,4.173-.966,8.7,8.7,0,0,1,3.09.656c.035.015.068.036.087.046l-1.212,1.212a3.76,3.76,0,0,0-5.233,5.232l-1.533,1.535a13.005,13.005,0,0,1-1.881-1.323,18.251,18.251,0,0,1-2.129-2.115C936.272,481.482,936.261,481.372,936.407,481.2Z" transform="translate(-935.06 -473.298)" fill="#ccc"/>
    <path id="Path_801" d="M953.29,478.954c-.413-.4-.856-.779-1.3-1.144a.618.618,0,0,0-1.019.406.661.661,0,0,0,.3.616,17.781,17.781,0,0,1,2.392,2.32c.183.211.191.314.022.509A17.342,17.342,0,0,1,950.9,484.3a9.239,9.239,0,0,1-7.71,1.912.613.613,0,0,0-.734.5.627.627,0,0,0,.489.714c.087.02.175.038.263.055a9.544,9.544,0,0,0,1.864.182,10.072,10.072,0,0,0,3.984-.845,11.54,11.54,0,0,0,1.041-.514,16.731,16.731,0,0,0,4.6-3.91,1.479,1.479,0,0,0-.034-2C954.217,479.9,953.764,479.417,953.29,478.954Z" transform="translate(-935.06 -473.298)" fill="#ccc"/>
    <path id="Path_802" d="M945.113,485.166a3.765,3.765,0,0,0,3.687-3.634.631.631,0,1,0-1.249-.03,2.509,2.509,0,0,1-2.459,2.416.626.626,0,1,0,.021,1.248Z" transform="translate(-935.06 -473.298)" fill="#ccc"/>
</svg>
