<svg xmlns="http://www.w3.org/2000/svg" width="19.947" height="20" viewBox="0 0 19.947 20">
    <g id="Group_5052" data-name="Group 5052" transform="translate(1237.871 -635.859)">
        <path id="Path_6379" data-name="Path 6379" d="M-1236.851,638.044a1.866,1.866,0,0,0,2.773,1.216,1.885,1.885,0,0,0,.537-2.747,2.428,2.428,0,0,0-.888-.654h-1.181a.457.457,0,0,1-.063.038A1.864,1.864,0,0,0-1236.851,638.044Z" fill="#7db1c9"/>
        <path id="Path_6380" data-name="Path 6380" d="M-1222.661,638.146a1.831,1.831,0,0,0,2.087,1.342,1.856,1.856,0,0,0,1.495-2.384,1.929,1.929,0,0,0-1.216-1.245h-1.142c-.052.024-.1.051-.157.074A1.859,1.859,0,0,0-1222.661,638.146Z" fill="#7db1c9"/>
        <path id="Path_6381" data-name="Path 6381" d="M-1218.5,655.83a1.061,1.061,0,0,0,.074-1.844c-.379-.256-.727-.558-1.09-.837-.456-.349-.914-.7-1.347-1.027l-1.316,1.627c.373.284.755.58,1.141.871q.822.621,1.646,1.239h.867A.117.117,0,0,1-1218.5,655.83Z" fill="#7db1c9"/>
        <path id="Path_6382" data-name="Path 6382" d="M-1227.512,640a7.73,7.73,0,0,0-8.208,7.575,7.751,7.751,0,0,0,7.665,7.932,7.727,7.727,0,0,0,7.862-7.674A7.712,7.712,0,0,0-1227.512,640Zm-.437,13.265a5.5,5.5,0,0,1-5.527-5.532,5.5,5.5,0,0,1,5.519-5.5,5.531,5.531,0,0,1,5.529,5.518A5.515,5.515,0,0,1-1227.949,653.265Z" fill="#7db1c9"/>
        <path id="Path_6383" data-name="Path 6383" d="M-1218.573,639.906c-.181-.02-.366-.011-.549-.017a.535.535,0,0,0-.5.273c-.269.406-.56.8-.857,1.219a1.777,1.777,0,0,0-.124-.252.384.384,0,0,1-.005-.455,4.842,4.842,0,0,0,.241-.516c.07-.168.02-.248-.163-.258-.216-.011-.433-.015-.649-.007-.183.006-.244.111-.17.279.093.209.2.413.29.624a.266.266,0,0,1,.014.179c-.045.129-.11.249-.184.41-.239-.347-.477-.646-.662-.974a.853.853,0,0,0-.987-.517,2.507,2.507,0,0,1-.275.012.559.559,0,0,0-.541.478.27.27,0,0,0,.144.352,7.26,7.26,0,0,1,1.545,1.237,8.215,8.215,0,0,1,1.54,2.22.226.226,0,0,0,.24.149c.373-.007.747,0,1.121,0h1.1v-.872c0-.971,0-1.942,0-2.913A.571.571,0,0,0-1218.573,639.906Z" fill="#7db1c9"/>
        <path id="Path_6384" data-name="Path 6384" d="M-1235.419,644.17a17.5,17.5,0,0,1,1-1.592,7.666,7.666,0,0,1,2.115-1.886c.047-.029.106-.07.121-.117a.554.554,0,0,0-.426-.653,4.909,4.909,0,0,0-.822-.01.43.43,0,0,0-.275.156c-.252.335-.484.683-.726,1.026-.065.092-.135.18-.211.28a2.379,2.379,0,0,0-.125-.253.368.368,0,0,1-.007-.435,4.021,4.021,0,0,0,.248-.511c.073-.175.016-.266-.171-.275-.209-.011-.42-.017-.629-.009-.194.006-.255.111-.177.29.09.2.19.4.281.606a.259.259,0,0,1,.031.163c-.051.14-.122.272-.2.431-.239-.344-.486-.652-.679-.991a.828.828,0,0,0-.957-.495.579.579,0,0,1-.138,0,.621.621,0,0,0-.707.708c.01.931,0,1.862,0,2.792v.944c.74,0,1.455-.006,2.168,0A.277.277,0,0,0-1235.419,644.17Z" fill="#7db1c9"/>
        <path id="Path_6385" data-name="Path 6385" d="M-1225.533,647.157a4.842,4.842,0,0,0-.86-.018.415.415,0,0,0-.221.145,2.333,2.333,0,0,0-.2.268l-.753,1.063a2.626,2.626,0,0,0-.117-.236.434.434,0,0,1,.006-.508,3.2,3.2,0,0,0,.217-.462c.078-.191.017-.283-.192-.288-.19,0-.38,0-.571,0-.226.005-.286.106-.19.319.088.2.187.39.269.59a.3.3,0,0,1,.007.2,3.812,3.812,0,0,1-.18.383c-.225-.325-.434-.618-.633-.916-.445-.668-.361-.569-1.09-.578-.533-.006-.756.217-.756.747q0,1.75,0,3.5c0,.064.007.128.01.19h5.686c0-1.311.005-2.608,0-3.9A.5.5,0,0,0-1225.533,647.157Z" fill="#7db1c9"/>
        <path id="Path_6386" data-name="Path 6386" d="M-1227.943,646.755a1.839,1.839,0,0,0,1.861-1.9,1.861,1.861,0,0,0-1.921-1.837,1.87,1.87,0,0,0-1.811,1.858A1.848,1.848,0,0,0-1227.943,646.755Z" fill="#7db1c9"/>
    </g>
</svg>
