<?xml version="1.0"?>
<svg xmlns="http://www.w3.org/2000/svg" width="16.758" height="18" viewBox="0 0 16.758 18">
    <g id="Group_3538" transform="translate(-990.021 -67.421)">
        <path id="Path_4546" d="M1001.719,79.028h0Z" fill="#fff"/>
        <path id="Path_4547" d="M1006.263,75.854a.929.929,0,0,0-.443-.1h-.661c0-.343.005-.67,0-1a6.482,6.482,0,0,0-.041-.751,1.248,1.248,0,0,0-.884-1.1c-.06-.02-.069-.051-.069-.106,0-.52,0-1.041,0-1.561a3.5,3.5,0,0,0-.037-.512.979.979,0,0,0-.751-.864,1.363,1.363,0,0,0-.317-.045c-.425-.006-.851-.006-1.276,0a.138.138,0,0,1-.137-.078q-.675-1.114-1.353-2.227c-.019-.031-.038-.061-.059-.093l-.061.034q-1.945,1.15-3.892,2.3a.432.432,0,0,1-.213.059c-1.111,0-2.222,0-3.333.006a6.662,6.662,0,0,0-.967.081,2.278,2.278,0,0,0-1.2.544,1.491,1.491,0,0,0-.534,1.1c-.014,3.685-.007,7.37-.008,11.054a3.566,3.566,0,0,0,.115.926,2.426,2.426,0,0,0,2.439,1.894c3.391-.015,6.782-.007,10.173,0a2.154,2.154,0,0,0,1.568-.645,2.833,2.833,0,0,0,.836-2.053c.015-.97,0-1.941.005-2.911v-.113h.123c.211,0,.422,0,.633-.007a.9.9,0,0,0,.859-.885q.012-1.079,0-2.157A.871.871,0,0,0,1006.263,75.854Zm-4.079-5.372c.281,0,.563,0,.844,0,.306,0,.433.126.457.43.011.144.015.288.016.431,0,.437,0,.875,0,1.312v.088l-.021.006-1.38-2.265C1002.138,70.485,1002.161,70.482,1002.184,70.482Zm-2.178-2.157,2.71,4.45a.651.651,0,0,1-.075.009c-.153,0-.306,0-.459,0a.143.143,0,0,1-.144-.084q-.621-1.017-1.248-2.032l-.054-.085-.221.13a1.358,1.358,0,0,1-1.952-.5c-.043-.073-.087-.146-.135-.225l-.3.178q-2.183,1.283-4.364,2.564a.4.4,0,0,1-.189.05c-.318.005-.636,0-.954,0h-.1l0-.024Zm1.3,4.451H995l3.215-1.891a2.036,2.036,0,0,0,1.041.653,1.949,1.949,0,0,0,1.156-.043c.069-.024.1-.009.136.052C1000.794,71.954,1001.045,72.359,1001.3,72.776Zm-10.58-1.351a1,1,0,0,1,.506-.644,2.35,2.35,0,0,1,1.009-.276c.3-.02.6-.02.907-.022.593,0,1.187,0,1.78,0h.125c-.049.032-.072.049-.1.063q-1.656.981-3.313,1.96a.117.117,0,0,1-.1.015,1.823,1.823,0,0,1-.8-.811A.4.4,0,0,1,990.722,71.425Zm13.773,11.194a2.35,2.35,0,0,1-.459,1.47,1.584,1.584,0,0,1-1.324.664c-3.372,0-6.744-.012-10.117,0a1.765,1.765,0,0,1-1.831-1.47,2.893,2.893,0,0,1-.074-.636q-.008-4.92,0-9.842v-.085a2.86,2.86,0,0,0,.728.48,2.982,2.982,0,0,0,1.257.249q5.325,0,10.65,0a3.894,3.894,0,0,1,.458.025c.428.051.649.236.685.666.044.532.032,1.068.045,1.613h-.128q-1.348,0-2.7,0a.918.918,0,0,0-.922.7,1.117,1.117,0,0,0-.027.264c0,.664,0,1.328,0,1.992a.926.926,0,0,0,.979.978h2.785v.094Q1004.5,81.206,1004.495,82.619Zm1.307-3.591h-4.083c-.236,0-.325-.091-.325-.328q0-.982,0-1.964c0-.218.1-.315.312-.315h4.092c.219,0,.314.094.315.311v1.982C1006.113,78.934,1006.021,79.028,1005.8,79.028Z" fill="#fff"/>
        <path id="Path_4548" d="M1003.657,76.691a1.036,1.036,0,1,0,1.038,1.031A1.036,1.036,0,0,0,1003.657,76.691Z" fill="#fff"/>
    </g>
</svg>
