<svg xmlns="http://www.w3.org/2000/svg" width="20" height="15.123" viewBox="0 0 20 15.123">
    <g id="Group_5051" data-name="Group 5051" transform="translate(1237.897 -758.959)">
        <path id="Path_6376" data-name="Path 6376" d="M-1237.07,774.077a.682.682,0,0,0,.6-.687c.009-.23.014-.461.045-.689a5.956,5.956,0,0,1,1.636-3.416,5.484,5.484,0,0,1,4.048-1.773,5.261,5.261,0,0,1,3.059.944,5.884,5.884,0,0,1,2.559,3.92c.068.364.069.739.118,1.106a.674.674,0,0,0,.757.6.661.661,0,0,0,.629-.68,6.554,6.554,0,0,0-.064-1.021,7.325,7.325,0,0,0-4.282-5.7c-.058-.028-.113-.062-.193-.106a4.228,4.228,0,0,0,1.617-3.107,4.109,4.109,0,0,0-1.248-3.268,4.249,4.249,0,0,0-5.7-.256,4.106,4.106,0,0,0-1.517,2.856,4.246,4.246,0,0,0,1.631,3.8c-.079.042-.128.072-.18.1a6.974,6.974,0,0,0-1.922,1.279,7.307,7.307,0,0,0-2.326,4.518c-.035.278-.062.558-.092.836v.045c.015.049.034.1.045.148A.683.683,0,0,0-1237.07,774.077Zm3.412-10.908a2.882,2.882,0,0,1,2.886-2.848,2.874,2.874,0,0,1,2.871,2.884,2.893,2.893,0,0,1-2.985,2.862A2.912,2.912,0,0,1-1233.658,763.169Z" fill="#7db1c9"/>
        <path id="Path_6377" data-name="Path 6377" d="M-1218.886,770.79a.712.712,0,0,0,.193-1.016,7.266,7.266,0,0,0-3.243-2.959c-.158-.078-.319-.151-.542-.255.095-.068.16-.1.214-.153a4.224,4.224,0,0,0,.878-5.33,4.147,4.147,0,0,0-2.188-1.846.666.666,0,0,0-.872.365.671.671,0,0,0,.331.866c.126.064.256.12.382.183a2.881,2.881,0,0,1,1.211,3.883,3,3,0,0,1-1.394,1.3.984.984,0,0,0-.515.531.948.948,0,0,0,.67,1.288,7.386,7.386,0,0,1,1.905.793,5.652,5.652,0,0,1,1.964,2.058A.694.694,0,0,0-1218.886,770.79Z" fill="#7db1c9"/>
        <path id="Path_6378" data-name="Path 6378" d="M-1218.6,772.261a.7.7,0,0,0-.7.693.711.711,0,0,0,.705.714.7.7,0,0,0,.693-.7A.691.691,0,0,0-1218.6,772.261Z" fill="#7db1c9"/>
    </g>
</svg>
