<svg xmlns="http://www.w3.org/2000/svg" width="20" height="20" viewBox="0 0 20 20">
    <g id="Group_1492" data-name="Group 1492" transform="translate(-793.609 -205)">
        <g id="Rectangle_1577" data-name="Rectangle 1577" transform="translate(793.609 205)" fill="none" stroke="#7db1c9" stroke-miterlimit="10" stroke-width="1">
            <rect width="20" height="20" rx="10" stroke="none"/>
            <rect x="0.5" y="0.5" width="19" height="19" rx="9.5" fill="none"/>
        </g>
        <g id="Group_1491" data-name="Group 1491">
            <path id="Path_1424" data-name="Path 1424" d="M801.173,215.054a18.916,18.916,0,0,0,1.94,2.707,2.329,2.329,0,0,0,.22.234.4.4,0,0,0,.272.117.461.461,0,0,0,.32-.154,1.122,1.122,0,0,0,.116-.124l.35-.443c.291-.367.582-.734.857-1.111a11.851,11.851,0,0,0,1.416-2.471,3.74,3.74,0,0,0,.171-2.406,3.292,3.292,0,0,0-3.406-2.436h0a3.082,3.082,0,0,0-2.133.881,3.416,3.416,0,0,0-.953,3.266A6.345,6.345,0,0,0,801.173,215.054Zm3.164-5.2a2.356,2.356,0,0,1,1.606,1.468,2.844,2.844,0,0,1-.013,2.123,8.526,8.526,0,0,1-.57,1.163,18.73,18.73,0,0,1-1.753,2.477l-.1-.127c-.184-.233-.364-.461-.54-.692a14.809,14.809,0,0,1-1.378-2.142,3.79,3.79,0,0,1-.505-1.548,2.608,2.608,0,0,1,.982-2.319,2.522,2.522,0,0,1,1.547-.5A2.741,2.741,0,0,1,804.337,209.854Z" fill="#7db1c9"/>
            <path id="Path_1425" data-name="Path 1425" d="M809.015,217.479a2.167,2.167,0,0,0-.421-.3h0a5.438,5.438,0,0,0-1.546-.521c-.247-.053-.5-.093-.749-.133l-.15-.025a.435.435,0,0,0-.517.312.375.375,0,0,0,.05.289.459.459,0,0,0,.306.193l.044-.22.023.232.4.081c.33.067.66.132.984.214a2.282,2.282,0,0,1,.9.412c.1.079.1.121.1.121s-.017.046-.1.1a2.213,2.213,0,0,1-.47.263,8.82,8.82,0,0,1-2.385.51,18.421,18.421,0,0,1-3.956-.019,8.715,8.715,0,0,1-2.059-.437,2.859,2.859,0,0,1-.594-.3c-.1-.065-.116-.111-.116-.121s.018-.054.111-.119a2.782,2.782,0,0,1,.569-.3,8.152,8.152,0,0,1,1.793-.418.477.477,0,0,0,.337-.179.378.378,0,0,0,.067-.288.43.43,0,0,0-.53-.331,9.184,9.184,0,0,0-2.027.475,2.668,2.668,0,0,0-.892.52.892.892,0,0,0-.3.62.846.846,0,0,0,.258.606,1.986,1.986,0,0,0,.415.319,5.153,5.153,0,0,0,1.517.536,16.438,16.438,0,0,0,3.517.345v0c.023,0,.046,0,.071,0v.007l.216-.015c.269-.018.5-.027.715-.037.335-.014.65-.028,1.061-.066a9.722,9.722,0,0,0,2.385-.493,2.666,2.666,0,0,0,.973-.549.886.886,0,0,0,.3-.647A.874.874,0,0,0,809.015,217.479Z" fill="#7db1c9"/>
            <path id="Path_1426" data-name="Path 1426" d="M803.595,213.941h.015a1.85,1.85,0,0,0,1.3-.527,1.637,1.637,0,0,0,.5-1.17,1.738,1.738,0,0,0-1.774-1.709,1.86,1.86,0,0,0-1.31.515,1.656,1.656,0,0,0-.5,1.18A1.753,1.753,0,0,0,803.595,213.941Zm.013-2.608h0a.942.942,0,0,1,.97.9.867.867,0,0,1-.26.618,1,1,0,0,1-.713.288h0a.941.941,0,0,1-.971-.9.87.87,0,0,1,.261-.618A1,1,0,0,1,803.608,211.333Z" fill="#7db1c9"/>
        </g>
    </g>
</svg>
