<svg xmlns="http://www.w3.org/2000/svg" width="18.008" height="18.003" viewBox="0 0 18.008 18.003">
  <g id="Group_3578" data-name="Group 3578" transform="translate(-515.597 -441.627)">
    <g id="Group_3577" data-name="Group 3577">
      <path id="Path_3600" data-name="Path 3600" d="M532.474,452.879a1.12,1.12,0,0,0-1.131,1.107V454c-.006.751,0,1.5,0,2.251v1.122H517.849v-3.248a2.16,2.16,0,0,0-.013-.278,1.045,1.045,0,0,0-.387-.7,1.128,1.128,0,0,0-1.849.881v4.409a1.119,1.119,0,0,0,1.2,1.193h15.558a1.685,1.685,0,0,0,.325-.019,1.12,1.12,0,0,0,.921-1.157v-4.44a1.125,1.125,0,0,0-1.118-1.132Z" fill="#b1b1b1"/>
      <path id="Path_3601" data-name="Path 3601" d="M520.908,448.038c.812-.8,1.618-1.616,2.427-2.424.037-.037.077-.071.141-.131v8.36c0,.088,0,.176.007.263a1.124,1.124,0,0,0,2.242-.149V445.52l.053-.035a1.741,1.741,0,0,0,.14.179q1.177,1.182,2.358,2.361a1.126,1.126,0,1,0,1.6-1.585l-4.4-4.4a1.134,1.134,0,0,0-1.6-.154,1.119,1.119,0,0,0-.151.149l-1.361,1.361-3.049,3.052a1.124,1.124,0,0,0,1.573,1.607l.015-.016Z" fill="#b1b1b1"/>
    </g>
  </g>
</svg>
