<svg xmlns="http://www.w3.org/2000/svg" width="19.28" height="20" viewBox="0 0 19.28 20">
  <g id="Group_4484" data-name="Group 4484" transform="translate(-3809.409 -670.202)">
    <path id="Path_5699" data-name="Path 5699" d="M3827.22,673.1c-.452-.006-.905,0-1.357,0h-.147v-.13c0-.331,0-.663,0-.995a1.747,1.747,0,0,0-1.517-1.708,6.131,6.131,0,0,0-.676-.065h-.257a2.637,2.637,0,0,0-.811.148,1.785,1.785,0,0,0-1.182,1.62c-.006.331,0,.663,0,.995v.129h-4.445c0-.043,0-.086,0-.13,0-.388.021-.78-.021-1.164a1.779,1.779,0,0,0-1.755-1.565,6.43,6.43,0,0,0-1.2.039,1.775,1.775,0,0,0-1.465,1.612c-.015.372,0,.746-.007,1.119,0,.026,0,.052-.006.1h-.13c-.428,0-.857.014-1.284,0a1.49,1.49,0,0,0-1.552,1.491c.013,2.163,0,4.326,0,6.49,0,2.544.007,5.089,0,7.633a1.476,1.476,0,0,0,1.124,1.446,1.794,1.794,0,0,0,.4.043q8.1,0,16.206,0a1.449,1.449,0,0,0,1.528-1.253.3.3,0,0,1,.019-.053V674.4c-.019-.085-.033-.172-.058-.255A1.489,1.489,0,0,0,3827.22,673.1Zm-4.464-1.007c0-.292.123-.407.43-.408h.636c.284,0,.41.118.414.391,0,.366,0,.731,0,1.1q0,1.012,0,2.022c0,.28-.119.4-.4.4-.236,0-.472,0-.709,0a.33.33,0,0,1-.369-.359c0-.529,0-1.059,0-1.588S3822.754,672.614,3822.755,672.1Zm-8.895.04c0-.042,0-.084,0-.126a.327.327,0,0,1,.351-.32q.389-.011.78,0a.327.327,0,0,1,.344.361c0,.537,0,1.074,0,1.611,0,.514,0,1.029,0,1.543,0,.275-.12.391-.406.394-.236,0-.472,0-.708,0a.326.326,0,0,1-.363-.329c0-.038,0-.076,0-.115Zm13.332,16.644H3810.9V677.385h16.292Z" transform="translate(0 0)" fill="#88b1c7"/>
  </g>
</svg>
