<svg xmlns="http://www.w3.org/2000/svg" width="39.006" height="40" viewBox="0 0 39.006 40">
  <g id="Group_3152" data-name="Group 3152" transform="translate(-944.886 -2293.104)">
    <path id="Path_4029" data-name="Path 4029" d="M980.028,2323.326h3.864L975,2333.1l-8.9-9.772H970v-.816q0-4.555,0-9.109c0-.94.285-1.255,1.24-1.262q3.764-.027,7.527,0c.947.008,1.26.372,1.26,1.333q0,4.522,0,9.046Z" fill="#c9c9c9"/>
    <path id="Path_4030" data-name="Path 4030" d="M955.967,2312.956q-4.711,0-9.421,0c-1.144,0-1.654-.5-1.656-1.652q-.009-5.09,0-10.179a1.5,1.5,0,0,1,1.669-1.686q9.42-.006,18.842,0a1.424,1.424,0,0,1,1.613,1.632q0,5.154,0,10.306c0,1.113-.464,1.578-1.563,1.579Q960.708,2312.959,955.967,2312.956Zm-2.723-2.545c1.032,0,2,.045,2.959-.01a2.9,2.9,0,0,0,2.749-2.362,7.028,7.028,0,0,0,.043-3.672,2.709,2.709,0,0,0-1.478-1.94c-1.375-.622-2.825-.335-4.273-.4Zm-6.451-8.448v8.434h1.861v-3.113c.437,0,.791,0,1.145,0a2.169,2.169,0,0,0,2.284-1.236,2.991,2.991,0,0,0-.273-3.16,1.82,1.82,0,0,0-1.065-.684C949.456,2302.058,948.152,2302.036,946.793,2301.963Zm15.583,3.654v-2.161h3.087v-1.383h-4.995v8.329h1.872v-3.3H964.7v-1.489Z" fill="#c9c9c9"/>
    <path id="Path_4031" data-name="Path 4031" d="M950.737,2298.236h-2.191a5.58,5.58,0,0,1,5.573-5.121q9.363-.019,18.725,0a5.5,5.5,0,0,1,5.61,5.479c.085,3.857.021,7.717.019,11.576a1.2,1.2,0,0,1-.049.22h-2.176v-.689c0-3.584-.03-7.169.012-10.754a3.505,3.505,0,0,0-3.611-3.6q-9.013.1-18.029,0A3.6,3.6,0,0,0,950.737,2298.236Z" fill="#c9c9c9"/>
    <path id="Path_4032" data-name="Path 4032" d="M948.533,2314.24h2.223v.768c0,3.1-.008,6.2,0,9.294a3.268,3.268,0,0,0,2.471,3.382,4.71,4.71,0,0,0,1.188.1q6.418.011,12.835,0a1.178,1.178,0,0,1,1.021.467c.476.581,1,1.122,1.58,1.761-.284.016-.462.035-.639.035q-7.587,0-15.175,0a5.522,5.522,0,0,1-5.5-5.5c-.009-3.246,0-6.492,0-9.737Z" fill="#c9c9c9"/>
    <path id="Path_4033" data-name="Path 4033" d="M955.155,2308.891v-5.317c1.024-.221,1.748.146,1.893,1.172a10.211,10.211,0,0,1-.02,2.921C956.867,2308.723,956.323,2309,955.155,2308.891Z" fill="#c9c9c9"/>
    <path id="Path_4034" data-name="Path 4034" d="M948.68,2305.85v-2.44c.558-.018,1.111-.134,1.463.375a1.519,1.519,0,0,1,.061,1.612C949.892,2306.008,949.285,2305.844,948.68,2305.85Z" fill="#c9c9c9"/>
  </g>
</svg>
