<svg xmlns="http://www.w3.org/2000/svg" width="16" height="15.999" viewBox="0 0 16 15.999">
  <g id="Group_6457" data-name="Group 6457" transform="translate(-672.718 -2084.412)">
    <path id="Path_7826" data-name="Path 7826" d="M687.72,2094.415a.993.993,0,0,0-1.006.994c-.005.666,0,1.333,0,2v1H674.719v-.182q0-1.352,0-2.7a1.857,1.857,0,0,0-.011-.248.929.929,0,0,0-.344-.624,1,1,0,0,0-1.643.782q0,1.961,0,3.919a1,1,0,0,0,1.063,1.061h13.827a1.552,1.552,0,0,0,.288-.017,1,1,0,0,0,.819-1.028q0-1.974,0-3.947A1,1,0,0,0,687.72,2094.415Z" fill="#fff"/>
    <path id="Path_7827" data-name="Path 7827" d="M677.434,2090.111c.722-.715,1.438-1.436,2.157-2.155.033-.033.068-.063.126-.116v7.431c0,.078,0,.157.007.234a1,1,0,0,0,1.993-.132q0-3.671,0-7.341v-.159l.047-.031a1.781,1.781,0,0,0,.125.159q1.047,1.051,2.1,2.1a1,1,0,1,0,1.42-1.408q-1.953-1.959-3.91-3.913a1.009,1.009,0,0,0-1.553,0l-1.209,1.209q-1.356,1.356-2.71,2.713a1,1,0,1,0,1.411,1.414Z" fill="#fff"/>
  </g>
</svg>
