<svg xmlns="http://www.w3.org/2000/svg" width="30" height="30" viewBox="0 0 30 30">
  <g id="Group_1731" data-name="Group 1731" transform="translate(920.016 -195)">
    <g id="Group_955" data-name="Group 955">
      <path id="Path_1218" data-name="Path 1218" d="M-905.032,225a15,15,0,0,0,15.016-14.984A15,15,0,0,0-905,195a15,15,0,0,0-15.017,14.975A15,15,0,0,0-905.041,225Zm.022-28.187A13.188,13.188,0,0,1-891.816,210,13.187,13.187,0,0,1-905,223.189a13.187,13.187,0,0,1-13.194-13.181v-.017a13.172,13.172,0,0,1,13.163-13.178Z" fill="#979797"/>
      <path id="Path_1219" data-name="Path 1219" d="M-911.6,215.3a.907.907,0,0,0-.072,1.281.908.908,0,0,0,1.282.072c.023-.021.044-.042.065-.065q1.939-1.935,3.874-3.874l1.418-1.425a1.512,1.512,0,0,1,.15.15q1.313,1.311,2.625,2.625c.852.852,1.7,1.705,2.55,2.549a.9.9,0,0,0,1.272.037.872.872,0,0,0,.1-.116.913.913,0,0,0-.123-1.227q-2.213-2.219-4.426-4.434c-.285-.287-.579-.564-.873-.851.057-.061.087-.094.118-.126l5.151-5.155a1.341,1.341,0,0,0,.282-.394.9.9,0,0,0-.348-1.086.9.9,0,0,0-1.151.136l-4.2,4.2c-.373.374-.742.75-1.12,1.135l-.134-.126-2.443-2.443-2.738-2.736a.908.908,0,0,0-1.283-.072.908.908,0,0,0-.072,1.283.794.794,0,0,0,.088.086l5.137,5.139c.048.048.1.1.15.15l-2.476,2.474Q-910.187,213.888-911.6,215.3Z" fill="#979797"/>
    </g>
  </g>
</svg>
