<svg xmlns="http://www.w3.org/2000/svg" width="15" height="15" viewBox="0 0 15 15">
    <g id="Group_4535" data-name="Group 4535" transform="translate(-2307.857 -488.271)">
        <g id="Group_4534" data-name="Group 4534">
            <path id="Path_5764" data-name="Path 5764" d="M2318.336,495.813a.841.841,0,0,0,.061-1.236.856.856,0,0,0-1.239.05c-.359.377-.743.73-1.11,1.1-.23.233-.449.478-.68.725-.079-.074-.12-.112-.16-.151-.569-.559-1.135-1.12-1.706-1.676a.833.833,0,1,0-1.146,1.208q1.173,1.158,2.349,2.313a.835.835,0,0,0,1.258,0Q2317.151,496.981,2318.336,495.813Z" fill="#0071bc"/>
            <g id="Group_4533" data-name="Group 4533">
                <path id="Path_5765" data-name="Path 5765" d="M2315.357,489.271a6.5,6.5,0,1,1-6.5,6.5,6.508,6.508,0,0,1,6.5-6.5m0-1a7.5,7.5,0,1,0,7.5,7.5,7.5,7.5,0,0,0-7.5-7.5Z" fill="#0071bc"/>
            </g>
        </g>
    </g>
</svg>
