<svg xmlns="http://www.w3.org/2000/svg" width="20.113" height="20" viewBox="0 0 20.113 20">
  <g id="Group_3858" data-name="Group 3858" transform="translate(-220.284 -334.167)">
    <path id="Path_5060" data-name="Path 5060" d="M225.746,342.424a26.333,26.333,0,0,0,3.427,5.848c.368.5.757.98,1.16,1.5a33.419,33.419,0,0,0,3.957-5.935,11.642,11.642,0,0,0,1.269-3.758,5.26,5.26,0,1,0-10.478-.528A8.214,8.214,0,0,0,225.746,342.424Zm4.6-5.907a2.593,2.593,0,1,1-2.6,2.6A2.588,2.588,0,0,1,230.349,336.517Z" fill="#80aec8"/>
    <path id="Path_5061" data-name="Path 5061" d="M239.9,350.005a5,5,0,0,0-1.2-.789,16.074,16.074,0,0,0-5.227-1.263.367.367,0,0,0-.267.141c-.315.409-.616.829-.92,1.246-.037.051-.065.108-.1.172a16.7,16.7,0,0,1,6.315,1.457c-.233.12-.391.213-.557.285a15.922,15.922,0,0,1-4.867,1.1,29.076,29.076,0,0,1-4.749.058,19.349,19.349,0,0,1-4.643-.8c-.494-.157-.968-.38-1.451-.573l.015-.107a16.878,16.878,0,0,1,6.257-1.418c-.353-.484-.7-.945-1.025-1.415a.3.3,0,0,0-.325-.149,19.581,19.581,0,0,0-4.278.894,5.708,5.708,0,0,0-2.064,1.115,1.226,1.226,0,0,0,0,2.014,5.269,5.269,0,0,0,1.252.8,16.879,16.879,0,0,0,5.5,1.266,30.028,30.028,0,0,0,5.561,0,19.308,19.308,0,0,0,4.722-.943,5.449,5.449,0,0,0,2.071-1.15A1.2,1.2,0,0,0,239.9,350.005Z" fill="#80aec8"/>
    <path id="Path_5062" data-name="Path 5062" d="M230.308,340.384a1.272,1.272,0,1,0-1.24-1.289A1.26,1.26,0,0,0,230.308,340.384Z" fill="#80aec8"/>
  </g>
</svg>
