<svg xmlns="http://www.w3.org/2000/svg" width="30" height="30" viewBox="0 0 30 30">
  <g id="Group_3880" data-name="Group 3880" transform="translate(-1259.749 -149.611)">
    <path id="Path_5085" data-name="Path 5085" d="M1289.741,158.639c-.045.04-.072.061-.1.086q-1.389,1.394-2.778,2.787a.415.415,0,0,0-.128.32q0,5.888,0,11.774a2.913,2.913,0,0,1-1.208,2.4,3.141,3.141,0,0,1-2.018.593q-8.528-.011-17.056,0a7.464,7.464,0,0,1-1.244-.049,2.933,2.933,0,0,1-2.216-1.766,3.533,3.533,0,0,1-.263-1.571q.014-8.614.005-17.228c0-.142-.012-.284-.008-.426a3.075,3.075,0,0,1,3.053-2.945c1.859.019,3.719-.007,5.579-.01q3.1-.006,6.2-.009a.351.351,0,0,0,.228-.068q1.474-1.431,2.937-2.872l-.021-.047h-.136q-7.792.006-15.586.006a5.057,5.057,0,0,0-3.193.994,4.726,4.726,0,0,0-2.033,3.867q-.013,10.124.014,20.247a4.4,4.4,0,0,0,.057.77,4.922,4.922,0,0,0,2.391,3.425,4.11,4.11,0,0,0,2.157.685q10.481.014,20.96.005a1.01,1.01,0,0,0,.174-.009,5.158,5.158,0,0,0,4.232-4.963c-.017-5.284.006-10.569.012-15.853C1289.749,158.745,1289.745,158.706,1289.741,158.639Z" fill="#ccc"/>
    <path id="Path_5086" data-name="Path 5086" d="M1287.126,156.994l-4.742-4.823-10.5,10.437,4.723,4.825Q1281.914,162.169,1287.126,156.994Z" fill="#ccc"/>
    <path id="Path_5087" data-name="Path 5087" d="M1289.414,153c-.34-.314-.645-.665-.966-1a18.243,18.243,0,0,0-2.444-2.262.691.691,0,0,0-.331-.117,1.462,1.462,0,0,0-1.172.452c-.447.437-.866.9-1.307,1.369,1.438,1.663,3.128,3.152,4.7,4.757.2-.194.4-.379.595-.562s.393-.366.588-.551a1.466,1.466,0,0,0,.193-.209,4.591,4.591,0,0,0,.377-.579A1.168,1.168,0,0,0,1289.414,153Z" fill="#ccc"/>
    <path id="Path_5088" data-name="Path 5088" d="M1269.236,170c2.26-.666,4.495-1.245,6.716-1.94l-4.8-4.726Z" fill="#ccc"/>
  </g>
</svg>
