<svg xmlns="http://www.w3.org/2000/svg" width="49.969" height="32" viewBox="0 0 49.969 32">
  <g id="Group_5109" data-name="Group 5109" transform="translate(-898.302 -3625.841)">
    <path id="Path_6459" data-name="Path 6459" d="M906.112,3650.626a9.243,9.243,0,0,0,1.666.179c2.869.017,5.739.022,8.609,0a9.269,9.269,0,0,0,1.931-.241,2.265,2.265,0,0,0,1.866-1.933,5.364,5.364,0,0,0-2.782-5.52,4.973,4.973,0,0,0-2.017-.6,18.625,18.625,0,0,1-2.576,4.327c-.048-.652-.09-1.276-.143-1.9a.367.367,0,0,1,.171-.379,1.1,1.1,0,0,0,.48-.891,3.211,3.211,0,0,1-2.438.013,1.13,1.13,0,0,0,.461.887c.07.059.167.151.164.224-.032.672-.083,1.343-.131,2.059a20.7,20.7,0,0,1-2.587-4.333,1.286,1.286,0,0,0-.176,0,5.367,5.367,0,0,0-4.659,5.731A2.355,2.355,0,0,0,906.112,3650.626Z" fill="#87b0c6"/>
    <g id="Group_5108" data-name="Group 5108">
      <path id="Path_6460" data-name="Path 6460" d="M943.068,3625.845l-14.2,0h-25.31c-.137,0-.273,0-.409.007a4.94,4.94,0,0,0-4.839,4.906q-.015,9.033-.005,18.066l0,4.106a4.438,4.438,0,0,0,.456,2.03,4.921,4.921,0,0,0,4.756,2.881q14.371,0,28.742,0h10.777c.126,0,.252,0,.378-.007a4.945,4.945,0,0,0,4.849-4.922q.014-8.662,0-17.327l0-4.814a4.477,4.477,0,0,0-.45-2.033A4.914,4.914,0,0,0,943.068,3625.845Zm.236,29.947h-6.875q-16.473,0-32.934,0a3.11,3.11,0,0,1-2.2-.779,2.886,2.886,0,0,1-.945-2.228l0-21.868a2.908,2.908,0,0,1,3.019-3.031c.794,0,1.585,0,2.376,0l37.391,0a2.941,2.941,0,0,1,2.98,2.16,3.193,3.193,0,0,1,.1.811q.006,10.98,0,21.96A2.907,2.907,0,0,1,943.3,3655.792Z" fill="#87b0c6"/>
      <path id="Path_6461" data-name="Path 6461" d="M925.27,3640.966h-.311c-.256,0-.511-.005-.766.008a.846.846,0,0,0-.81.854.833.833,0,0,0,.226.613,1.072,1.072,0,0,0,.77.273h16.762a2.216,2.216,0,0,0,.233-.005.874.874,0,0,0-.167-1.74H925.27Z" fill="#87b0c6"/>
      <path id="Path_6462" data-name="Path 6462" d="M925.27,3640.968h15.937l-15.937,0Z" fill="#87b0c6"/>
      <path id="Path_6463" data-name="Path 6463" d="M932.774,3637.033H939.3c.671,0,1.341.005,2.012-.006a.858.858,0,0,0,.68-.345.882.882,0,0,0,.131-.778.916.916,0,0,0-.978-.617H924.417c-.1,0-.171,0-.242,0a.854.854,0,0,0-.792.811.866.866,0,0,0,.224.655.967.967,0,0,0,.711.274q2.958,0,5.92,0Z" fill="#87b0c6"/>
      <path id="Path_6464" data-name="Path 6464" d="M924.317,3637.5h0Z" fill="#87b0c6"/>
      <path id="Path_6465" data-name="Path 6465" d="M934.064,3647.37a.85.85,0,0,0-.859-.718c-1.172-.005-2.346,0-3.524,0h-2.564c-.94,0-1.878,0-2.818,0a.875.875,0,0,0-.772,1.366.88.88,0,0,0,.726.375q1.506.01,3.009,0h2.533q1.633,0,3.271,0a1.514,1.514,0,0,0,.432-.051A.854.854,0,0,0,934.064,3647.37Z" fill="#87b0c6"/>
    </g>
    <path id="Path_6466" data-name="Path 6466" d="M910.266,3642.423a2.9,2.9,0,0,0,3.67-.031,5.236,5.236,0,0,0,1.016-1.085,7.671,7.671,0,0,0,1.212-4.264c-.021-.18-.037-.5-.1-.8a4.149,4.149,0,0,0-3.692-3.373,4.043,4.043,0,0,0-4.128,2.882,6.69,6.69,0,0,0,.426,4.553A4.789,4.789,0,0,0,910.266,3642.423Zm-1.211-5.569a4.78,4.78,0,0,1,.218-1.064c.079-.242.258-.334.553-.205a5.455,5.455,0,0,0,4.528,0c.295-.129.481-.037.55.207a6.59,6.59,0,0,1,.23,1.277,7.608,7.608,0,0,1-.065,1.089l.562-.227c-.082.423-.135.791-.225,1.15a5.257,5.257,0,0,1-1.206,2.333,2.684,2.684,0,0,1-4.174.046,5.884,5.884,0,0,1-1.46-3.522l.48.2C909.046,3637.715,909.018,3637.281,909.055,3636.854Z" fill="#87b0c6"/>
  </g>
</svg>
