<svg xmlns="http://www.w3.org/2000/svg" width="19.994" height="20" viewBox="0 0 19.994 20">
  <g id="Group_5240" data-name="Group 5240" transform="translate(-1355.479 -3928.369)">
    <g id="Group_5239" data-name="Group 5239">
      <g id="Group_5235" data-name="Group 5235">
        <path id="Path_6579" data-name="Path 6579" d="M1374.84,3945.1c-.02-3.394,0-6.789,0-10.183a.84.84,0,0,0-.01-.084c-.022.019-.035.029-.047.041-.6.6-1.2,1.206-1.8,1.806a.281.281,0,0,0-.085.215q0,3.816,0,7.633a1.91,1.91,0,0,1-1.56,1.857,6.333,6.333,0,0,1-.966.039q-5.28,0-10.561,0a4.884,4.884,0,0,1-.8-.03,1.9,1.9,0,0,1-1.434-1.136,2.278,2.278,0,0,1-.171-1.014q.009-5.567,0-11.132c0-.089-.008-.177-.006-.265a1.991,1.991,0,0,1,1.966-1.908c2.533.008,5.067,0,7.6-.008a.248.248,0,0,0,.189-.075q.912-.906,1.826-1.809a.4.4,0,0,0,.034-.048h-.085q-5.046,0-10.091,0a3.247,3.247,0,0,0-2.05.644,3.046,3.046,0,0,0-1.309,2.488c-.007,4.363,0,8.727.008,13.091a2.433,2.433,0,0,0,.034.467,3.212,3.212,0,0,0,2.081,2.484,5.707,5.707,0,0,0,.7.19h13.816a.625.625,0,0,1,.065-.023A3.341,3.341,0,0,0,1374.84,3945.1Z" fill="#cbcbcb"/>
      </g>
      <g id="Group_5236" data-name="Group 5236">
        <path id="Path_6580" data-name="Path 6580" d="M1375.111,3930.411c-.165-.163-.32-.334-.48-.5a11.8,11.8,0,0,0-1.577-1.46.448.448,0,0,0-.213-.077.952.952,0,0,0-.765.3c-.286.28-.554.578-.838.877.928,1.074,2.019,2.035,3.03,3.07l.619-.573a1.8,1.8,0,0,0,.585-.839v-.245A1.084,1.084,0,0,0,1375.111,3930.411Z" fill="#cbcbcb"/>
      </g>
      <g id="Group_5237" data-name="Group 5237">
        <path id="Path_6581" data-name="Path 6581" d="M1363.937,3936.762l3.049,3.116,6.793-6.745-3.062-3.113Z" fill="#cbcbcb"/>
      </g>
      <g id="Group_5238" data-name="Group 5238">
        <path id="Path_6582" data-name="Path 6582" d="M1362.229,3941.531c1.459-.429,2.9-.8,4.335-1.252l-3.1-3.05Z" fill="#cbcbcb"/>
      </g>
    </g>
  </g>
</svg>
