<?xml version="1.0"?>
<svg xmlns="http://www.w3.org/2000/svg" width="19.999" height="20.002" viewBox="0 0 19.999 20.002">
    <path id="Path_798" d="M508.222,408.938a9.907,9.907,0,0,0-6.2-7.755c-.083-.035-.163-.077-.256-.12a5.5,5.5,0,0,0,.579-7.947,5.418,5.418,0,0,0-7.381-.557,5.153,5.153,0,0,0-1.978,3.4,5.444,5.444,0,0,0,1.973,5.108,9.982,9.982,0,0,0-5.034,4.048,10.263,10.263,0,0,0-1.544,6.23h19.585c.132,0,.264.011.4.017V410C508.317,409.647,508.288,409.289,508.222,408.938ZM494.7,396.793a3.657,3.657,0,1,1,3.647,3.673A3.638,3.638,0,0,1,494.7,396.793Zm-4.5,12.759a8.214,8.214,0,0,1,11.994-6.345,8,8,0,0,1,4.345,6.345Z" transform="translate(-488.363 -391.365)" fill="#88b1c7"/>
</svg>
