<svg xmlns="http://www.w3.org/2000/svg" width="20.292" height="18.999" viewBox="0 0 20.292 18.999">
    <g id="Group_3537" data-name="Group 3537" transform="translate(-761.417 -68.322)">
        <path id="Path_4540" data-name="Path 4540" d="M777.764,80.05a2.871,2.871,0,0,0-1.838-1.469,1.431,1.431,0,0,0-1.344.229,5.827,5.827,0,0,1-1.163.681,4.366,4.366,0,0,1-2.977.261,5.716,5.716,0,0,1-1.953-.971,1.2,1.2,0,0,0-.992-.261,2.845,2.845,0,0,0-1.62.823,4.309,4.309,0,0,0-.958,1.741,9.868,9.868,0,0,0-.392,3.579,2.189,2.189,0,0,0,.6,1.37,2.469,2.469,0,0,0,1.862.784c1.521.007,3.042,0,4.563,0h0c1.566,0,3.132.015,4.7-.012a2.61,2.61,0,0,0,1.026-.253,2.317,2.317,0,0,0,1.356-2.253,13.145,13.145,0,0,0-.109-1.692A6.615,6.615,0,0,0,777.764,80.05Z" fill="none" stroke="#fff" stroke-miterlimit="10" stroke-width="1"/>
        <path id="Path_4541" data-name="Path 4541" d="M771.608,79.1a3.853,3.853,0,1,0-3.9-3.863A3.854,3.854,0,0,0,771.608,79.1Z" fill="none" stroke="#fff" stroke-miterlimit="10" stroke-width="1"/>
        <path id="Path_4542" data-name="Path 4542" d="M781.051,75.455a2.385,2.385,0,0,0-.414-1.118.665.665,0,0,0-.914-.237,7.133,7.133,0,0,1-.807.389,3.554,3.554,0,0,1-2.231.284c-.2-.043-.4-.082-.624-.128a4.535,4.535,0,0,1-.741,3.145c.126.021.219.042.313.051a2.92,2.92,0,0,1,1.863.827,1.334,1.334,0,0,0,1.156.447A7,7,0,0,0,780.036,79a1.444,1.444,0,0,0,1.171-1.528C781.185,76.795,781.131,76.123,781.051,75.455Z" fill="none" stroke="#fff" stroke-miterlimit="10" stroke-width="1"/>
        <path id="Path_4543" data-name="Path 4543" d="M765.289,78.976a3.352,3.352,0,0,1,1.306-.907c.383-.129.783-.206,1.194-.311a4.513,4.513,0,0,1-.718-3.121c-.063.016-.1.025-.147.037a3.476,3.476,0,0,1-2.121.016,11.347,11.347,0,0,1-1.418-.6.63.63,0,0,0-.841.2,3.207,3.207,0,0,0-.389.841,8.793,8.793,0,0,0-.233,2.5,1.306,1.306,0,0,0,.426.951,2.234,2.234,0,0,0,1.459.523c.4.024.793.013,1.188,0A.474.474,0,0,0,765.289,78.976Z" fill="none" stroke="#fff" stroke-miterlimit="10" stroke-width="1"/>
        <path id="Path_4544" data-name="Path 4544" d="M777.331,73.944A2.561,2.561,0,1,0,774.8,71.4,2.6,2.6,0,0,0,777.331,73.944Z" fill="none" stroke="#fff" stroke-miterlimit="10" stroke-width="1"/>
        <path id="Path_4545" data-name="Path 4545" d="M765.756,73.932a2.555,2.555,0,1,0-.03-5.11,2.555,2.555,0,0,0,.03,5.11Z" fill="none" stroke="#fff" stroke-miterlimit="10" stroke-width="1"/>
    </g>
</svg>
