<svg xmlns="http://www.w3.org/2000/svg" width="20.001" height="20" viewBox="0 0 20.001 20">
    <path id="Path_5850" data-name="Path 5850" d="M1211.065,215.659l-3.955-3.955a8.822,8.822,0,0,0,2.257-5.895v-.423a8.867,8.867,0,0,0-8.866-8.866h-.423a8.867,8.867,0,0,0-8.866,8.866v.423a8.867,8.867,0,0,0,8.866,8.866h.423a8.823,8.823,0,0,0,5.9-2.257l3.955,3.955a.5.5,0,0,0,.714-.714Zm-10.564-1.993h-.423a7.865,7.865,0,0,1-7.856-7.857v-.423a7.865,7.865,0,0,1,7.856-7.856h.423a7.866,7.866,0,0,1,7.857,7.856v.423A7.866,7.866,0,0,1,1200.5,213.666Z" transform="translate(-1191.212 -196.52)" fill="#fff"/>
</svg>
