<svg xmlns="http://www.w3.org/2000/svg" width="20.011" height="20" viewBox="0 0 20.011 20">
  <g id="Group_3296" data-name="Group 3296" transform="translate(-420.495 -312.52)">
    <path id="Path_4308" data-name="Path 4308" d="M430.483,312.52a10,10,0,1,0,10.023,10.052A10.012,10.012,0,0,0,430.483,312.52Zm-4.233,5.261a8.671,8.671,0,0,1,.482-2.616.5.5,0,0,1,.225-.256,8.065,8.065,0,0,1,2.982-.769.438.438,0,0,1,.286.1,9.828,9.828,0,0,1,2.047,2.653,20.141,20.141,0,0,1,2.072,5.663.215.215,0,0,1-.135.282,21.4,21.4,0,0,1-5.946,2.187c-.207.044-.414.082-.621.121-.066.013-.134.019-.253.036-.189-.668-.394-1.322-.559-1.986A18.452,18.452,0,0,1,426.25,317.781Zm-3.764,7.266a8.318,8.318,0,0,1,2.172-8.561c.023-.023.05-.041.1-.084a20.8,20.8,0,0,0,1.017,8.978c-.674,0-1.313.018-1.95-.007-.379-.014-.755-.095-1.132-.147A.223.223,0,0,1,422.486,325.047Zm.871,1.9c.277.017.511.044.745.042.659-.006,1.318-.012,1.975-.044a.343.343,0,0,1,.408.24,15.632,15.632,0,0,0,1.893,3.341c.027.036.047.076.092.15A8.5,8.5,0,0,1,423.357,326.951Zm11.024,2.635a.932.932,0,0,1-.622.69,9.527,9.527,0,0,1-2.584.627.553.553,0,0,1-.473-.16,11.365,11.365,0,0,1-2.291-3.2c-.136-.265-.26-.537-.4-.835a23.749,23.749,0,0,0,6.643-2.277c.026.275.055.52.073.766A12.748,12.748,0,0,1,434.381,329.586Zm4.4-8.357c.681,2-.773,6.209-2.511,7.379.033-.8.107-1.638.09-2.469s-.128-1.639-.188-2.458a.276.276,0,0,1,.091-.211,11.614,11.614,0,0,0,2.457-2.194A.389.389,0,0,1,438.782,321.229Zm-.69-1.94a5.766,5.766,0,0,1-1.441,1.832c-.261.235-.539.453-.831.7a23.374,23.374,0,0,0-1.266-3.9,18.478,18.478,0,0,0-1.992-3.547c.28.088.566.163.84.267a8.41,8.41,0,0,1,4.684,4.256A.42.42,0,0,1,438.092,319.289Z" fill="#2f83b9"/>
  </g>
</svg>
