<svg xmlns="http://www.w3.org/2000/svg" width="30" height="50" viewBox="0 0 18.665 18.663">
  <path id="Path_528" data-name="Path 528" d="M1169.095,4599.126q0,2.782-.063,3.851c0,.078.007.17.007.261a5.164,5.164,0,0,1-5.162,5.164c-.091,0-.185,0-.276-.007h.012q-1.07.062-3.85.062t-3.851-.062c-.079,0-.171.007-.263.007a5.163,5.163,0,0,1-5.163-5.162h0c0-.09,0-.18.007-.276v.013q-.062-1.069-.062-3.851t.062-3.851c0-.078-.006-.17-.006-.262a5.163,5.163,0,0,1,5.162-5.163c.091,0,.181,0,.276.007h-.013q1.071-.062,3.851-.062t3.851.062c.079,0,.171-.007.263-.007a5.163,5.163,0,0,1,5.162,5.163c0,.09,0,.18-.006.275v-.012q.062,1.068.063,3.851Zm-9.325-7.656-.929-.006q-.844-.006-1.283,0c-.292,0-.683.016-1.172.037a9.806,9.806,0,0,0-1.308.131l.057-.007a5.014,5.014,0,0,0-.9.235l.034-.01a3.2,3.2,0,0,0-1.766,1.752l-.009.021a4.635,4.635,0,0,0-.221.843v.029a9.282,9.282,0,0,0-.124,1.234v.017q-.03.736-.037,1.172t0,1.283c0,.564.007.873.007.929s0,.366-.007.929,0,.991,0,1.282.016.683.037,1.172a9.9,9.9,0,0,0,.132,1.309l-.008-.057a4.855,4.855,0,0,0,.236.9l-.011-.033a3.2,3.2,0,0,0,1.753,1.766l.021.008a4.627,4.627,0,0,0,.841.221h.029a9.041,9.041,0,0,0,1.235.123h.016q.735.031,1.172.037t1.282,0l.924-.018.929.006c.563,0,.992,0,1.282,0s.683-.016,1.172-.036a10.059,10.059,0,0,0,1.308-.133l-.057.008a4.958,4.958,0,0,0,.9-.236l-.034.011a3.2,3.2,0,0,0,1.767-1.752l.008-.022a4.784,4.784,0,0,0,.221-.841v-.029a9.131,9.131,0,0,0,.123-1.235v-.008q.03-.735.036-1.172c0-.29,0-.718,0-1.282s-.005-.873-.005-.929,0-.366.005-.929.005-.991,0-1.282-.017-.682-.036-1.172a9.882,9.882,0,0,0-.132-1.308l.008.057a4.922,4.922,0,0,0-.236-.9l.011.034a3.2,3.2,0,0,0-1.753-1.767l-.02-.007a4.63,4.63,0,0,0-.843-.221l-.029,0a8.876,8.876,0,0,0-1.235-.124h-.016q-.735-.031-1.172-.037t-1.281,0Zm6.1,2.675h0a1.12,1.12,0,1,1-1.121-1.119,1.109,1.109,0,0,1,.792.328,1.068,1.068,0,0,1,.322.768v.022h.007Zm-1.313,4.981a4.77,4.77,0,1,1-1.4-3.389,4.6,4.6,0,0,1,1.4,3.309v.085h0Zm-1.679,0h0a3.111,3.111,0,1,0-.912,2.2,2.984,2.984,0,0,0,.912-2.151v-.05h0Z" transform="translate(-1150.431 -4589.794)" fill="#75b0cc"/>
</svg>
