<svg xmlns="http://www.w3.org/2000/svg" width="19.285" height="20" viewBox="0 0 19.285 20">
    <g id="Group_4485" data-name="Group 4485" transform="translate(-3809.766 -911.557)">
        <path id="Path_5700" data-name="Path 5700" d="M3810.522,918.951a.151.151,0,0,0,.178-.127,8.969,8.969,0,0,1,1.4-2.717c.03-.041.063-.079.082-.1.432.2.842.4,1.266.57s.855.309,1.273.457l-.375,1.911h.889l.349-1.687c.581.088,1.133.187,1.689.252s1.124.1,1.707.145v1.289h.864v-.16c0-.331.006-.661,0-.991,0-.129.033-.166.164-.169a16.934,16.934,0,0,0,2.935-.328c.09-.018.181-.033.277-.05.017.061.032.106.041.151.1.476.191.952.291,1.427.01.046.05.121.078.122.272.009.543.005.849.005l-.378-1.917c.422-.15.853-.287,1.271-.456s.834-.374,1.266-.57a.027.027,0,0,1,.014.009c.035.044.07.089.1.135a9.19,9.19,0,0,1,1.372,2.684c.013.042.053.108.082.109.281.008.562.005.847.005a9.98,9.98,0,0,0-19.278,0C3810.023,918.949,3810.273,918.945,3810.522,918.951Zm15.526-3.647a10.931,10.931,0,0,1-2.219.874A9.512,9.512,0,0,0,3822,912.82,9.043,9.043,0,0,1,3826.048,915.3Zm-6.2-2.83c.136.045.262.079.38.129a3.331,3.331,0,0,1,1.13.834,8.11,8.11,0,0,1,1.591,2.938,13.278,13.278,0,0,1-3.1.365Zm-1.1.065c.048-.017.1-.029.149-.042a.5.5,0,0,1,.064,0v4.262a16.163,16.163,0,0,1-3.124-.363c.125-.32.234-.626.362-.923a6.924,6.924,0,0,1,1.347-2.128A3.059,3.059,0,0,1,3818.75,912.539Zm-1.945.283a9.532,9.532,0,0,0-1.818,3.34,9.622,9.622,0,0,1-2.218-.863A9.017,9.017,0,0,1,3816.8,912.822Z" fill="#88b1c7"/>
        <path id="Path_5701" data-name="Path 5701" d="M3828.334,924.16a.2.2,0,0,0-.236.169,8.783,8.783,0,0,1-1.283,2.539c-.063.087-.127.173-.194.262a11.876,11.876,0,0,0-2.53-1.034l.378-1.922h-.889l-.35,1.691a.843.843,0,0,1-.091-.005,17.213,17.213,0,0,0-3.2-.372c-.1,0-.1-.055-.1-.127,0-.335,0-.67,0-1.005,0-.06-.005-.119-.008-.184h-.862v1.289c-.579.048-1.139.079-1.7.144s-1.115.163-1.678.248c-.014-.047-.029-.091-.038-.137-.087-.406-.178-.81-.255-1.218-.063-.333-.056-.335-.4-.335h-.563l.383,1.934a11.891,11.891,0,0,0-2.546,1.039c-.2-.3-.4-.581-.579-.872a8.738,8.738,0,0,1-.9-1.964c-.016-.052-.071-.129-.11-.131-.273-.011-.546-.006-.822-.006a9.984,9.984,0,0,0,19.285,0C3828.8,924.163,3828.568,924.172,3828.334,924.16Zm-15.571,3.649a11.209,11.209,0,0,1,2.22-.877,9.579,9.579,0,0,0,1.818,3.355A9.024,9.024,0,0,1,3812.763,927.809Zm6.2,2.846c-.216-.09-.417-.155-.6-.253a4.006,4.006,0,0,1-1.369-1.3,9.3,9.3,0,0,1-1.123-2.306.711.711,0,0,1-.013-.074,16.468,16.468,0,0,1,3.106-.362Zm1.1-.082c-.065.022-.133.036-.219.059v-4.275a16.506,16.506,0,0,1,3.1.356.25.25,0,0,1,0,.061,8.307,8.307,0,0,1-1.537,2.843A3.159,3.159,0,0,1,3820.063,930.573Zm1.948-.286a9.557,9.557,0,0,0,1.817-3.355,11.182,11.182,0,0,1,2.221.877A9.032,9.032,0,0,1,3822.011,930.287Z" fill="#88b1c7"/>
        <path id="Path_5702" data-name="Path 5702" d="M3828.158,919.815a.142.142,0,0,0-.168.122c-.12.427-.247.852-.372,1.277-.095.327-.192.654-.3,1.018-.032-.084-.052-.131-.068-.179-.235-.7-.471-1.4-.7-2.107a.156.156,0,0,0-.179-.13c-.283.007-.567.006-.849,0a.157.157,0,0,0-.181.127c-.23.664-.468,1.325-.7,1.987-.027.076-.059.15-.1.25-.02-.057-.031-.082-.039-.109q-.286-.977-.574-1.954c-.088-.3-.088-.3-.4-.3h-.631a.487.487,0,0,0,0,.068q.528,1.657,1.056,3.315c.026.083.07.1.144.1.26,0,.519-.005.778,0a.149.149,0,0,0,.171-.122c.268-.765.541-1.529.813-2.293.017-.047.035-.093.063-.167.033.081.056.131.074.183.267.751.536,1.5.8,2.254a.181.181,0,0,0,.211.147c.241-.009.482-.006.722,0a.139.139,0,0,0,.158-.118q.52-1.617,1.046-3.23c.012-.038.018-.078.031-.134C3828.684,919.817,3828.421,919.822,3828.158,919.815Z" fill="#88b1c7"/>
        <path id="Path_5703" data-name="Path 5703" d="M3815.089,919.817a.134.134,0,0,0-.156.118c-.149.526-.3,1.051-.457,1.576-.066.226-.135.452-.213.716-.032-.084-.05-.127-.065-.17-.237-.706-.475-1.412-.707-2.12a.146.146,0,0,0-.169-.122c-.288.006-.575.008-.863,0a.148.148,0,0,0-.168.126c-.078.238-.164.472-.248.708-.178.5-.357,1-.55,1.545-.028-.091-.046-.144-.062-.2q-.3-1.026-.6-2.05c-.014-.047-.055-.123-.085-.124-.3-.009-.592-.005-.9-.005a1.1,1.1,0,0,0,.022.112q.517,1.632,1.034,3.263a.132.132,0,0,0,.154.1c.25,0,.5-.008.75,0a.174.174,0,0,0,.2-.144c.262-.757.53-1.512.8-2.268.018-.049.039-.1.07-.176l.067.18c.267.755.537,1.51.8,2.267a.175.175,0,0,0,.2.139c.231-.009.463-.01.693,0,.118.006.163-.038.2-.145q.512-1.6,1.031-3.2c.012-.037.018-.077.03-.13C3815.616,919.819,3815.352,919.823,3815.089,919.817Z" fill="#88b1c7"/>
        <path id="Path_5704" data-name="Path 5704" d="M3821.458,919.957c-.2.707-.41,1.412-.617,2.118-.012.04-.028.078-.054.15l-.065-.185c-.232-.7-.466-1.395-.695-2.094a.155.155,0,0,0-.177-.132c-.283.008-.567.008-.849,0a.16.16,0,0,0-.181.131c-.106.317-.22.632-.332.947-.149.422-.3.843-.463,1.3-.023-.071-.032-.1-.04-.123-.207-.706-.415-1.411-.617-2.118a.156.156,0,0,0-.185-.137c-.222.008-.444,0-.666,0-.043,0-.087.007-.139.01.008.036.011.054.017.072.349,1.1.7,2.2,1.046,3.3.026.082.071.1.145.1.255,0,.51-.008.764,0,.11,0,.153-.037.188-.138.268-.77.542-1.539.814-2.307.013-.037.032-.071.06-.131.035.094.059.16.083.226q.394,1.113.787,2.227a.149.149,0,0,0,.17.122q.375-.009.75,0c.094,0,.131-.034.158-.119q.517-1.615,1.042-3.23c.012-.038.018-.077.03-.131-.274,0-.533.005-.791,0C3821.529,919.812,3821.488,919.853,3821.458,919.957Z" fill="#88b1c7"/>
    </g>
</svg>
