<?xml version="1.0"?>
<svg xmlns="http://www.w3.org/2000/svg" viewBox="0 0 177.32 52.99">
  <defs>
    <style>.cls-1{fill:#fff;}</style>
  </defs>
  <g id="Layer_2">
    <g id="Layer_1-2">
      <g id="Path_491">
        <path class="cls-1" d="M87,22.82a12.91,12.91,0,0,1-1.81,6.7,13.77,13.77,0,0,1-4.84,4.84,12.81,12.81,0,0,1-6.7,1.8H62.52A2.19,2.19,0,0,1,60.33,34V11.66a2.19,2.19,0,0,1,4.38,0V31.79h9a8.51,8.51,0,0,0,4.5-1.22,9.2,9.2,0,0,0,3.25-3.25,8.69,8.69,0,0,0,1.22-4.5,2.19,2.19,0,0,1,4.37,0Z"/>
      </g>
      <g id="Path_492">
        <path class="cls-1" d="M92.61,13.89h22.32a2.08,2.08,0,0,1,1.54.64,2.12,2.12,0,0,1,.65,1.55V29.5a5.72,5.72,0,0,1-.66,2.69,6.76,6.76,0,0,1-1.81,2.17,8.22,8.22,0,0,1-5.3,1.8H98.19a8.18,8.18,0,0,1-5.29-1.8,6.79,6.79,0,0,1-1.82-2.17,5.6,5.6,0,0,1-.65-2.69V16.08a2.19,2.19,0,0,1,2.18-2.19Zm20.13,4.37H94.8V29.5A1.9,1.9,0,0,0,95.62,31a4.06,4.06,0,0,0,2.58.82h11.15a4.06,4.06,0,0,0,2.58-.82,1.9,1.9,0,0,0,.82-1.47Z"/>
      </g>
      <g id="Path_493">
        <path class="cls-1" d="M122.71,13.89H145a2.08,2.08,0,0,1,1.54.64,2.12,2.12,0,0,1,.65,1.55V43a5.75,5.75,0,0,1-.66,2.69,6.62,6.62,0,0,1-1.81,2.16,8.18,8.18,0,0,1-5.3,1.81H128.29A8.15,8.15,0,0,1,123,47.84a6.65,6.65,0,0,1-1.82-2.16,5.74,5.74,0,0,1-.65-2.69,2.1,2.1,0,0,1,.64-1.55,2.18,2.18,0,0,1,3.09,0A2.11,2.11,0,0,1,124.9,43a1.88,1.88,0,0,0,.83,1.46,3.9,3.9,0,0,0,2.57.82h11.16a3.9,3.9,0,0,0,2.57-.82,1.88,1.88,0,0,0,.83-1.46V35.5a9.39,9.39,0,0,1-3.4.66H128.31a8.2,8.2,0,0,1-5.3-1.8,6.92,6.92,0,0,1-1.82-2.17,5.71,5.71,0,0,1-.65-2.69V16.08a2.19,2.19,0,0,1,2.17-2.19Zm20.13,4.37H124.9V29.5a1.91,1.91,0,0,0,.83,1.47,4,4,0,0,0,2.57.82h11.16A4,4,0,0,0,142,31a1.9,1.9,0,0,0,.82-1.47Z"/>
      </g>
      <g id="Path_494">
        <path class="cls-1" d="M152.82,13.89h22.31a2.11,2.11,0,0,1,1.55.64,2.15,2.15,0,0,1,.64,1.55V29.5a5.84,5.84,0,0,1-.65,2.69,6.92,6.92,0,0,1-1.82,2.17,8.2,8.2,0,0,1-5.3,1.8H158.4a8.2,8.2,0,0,1-5.3-1.8,6.92,6.92,0,0,1-1.82-2.17,5.71,5.71,0,0,1-.65-2.69V16.08a2.19,2.19,0,0,1,2.19-2.19Zm20.12,4.37H155V29.5a1.91,1.91,0,0,0,.83,1.47,4,4,0,0,0,2.57.82h11.16a4,4,0,0,0,2.57-.82,1.9,1.9,0,0,0,.82-1.47Z"/>
      </g>
      <g id="Rectangle_554">
        <path class="cls-1" d="M26.49,53a12.49,12.49,0,0,1-8.89-3.68L3.68,35.39a12.58,12.58,0,0,1,0-17.79L17.6,3.68a12.58,12.58,0,0,1,17.79,0L49.31,17.6a12.6,12.6,0,0,1,0,17.79L35.39,49.31A12.49,12.49,0,0,1,26.49,53ZM5.8,19.72a9.6,9.6,0,0,0,0,13.55L19.72,47.19a9.6,9.6,0,0,0,13.55,0L47.19,33.27a9.6,9.6,0,0,0,0-13.55L33.27,5.8a9.6,9.6,0,0,0-13.55,0Z"/>
      </g>
      <g id="Rectangle_554-2">
        <rect class="cls-1" x="13.04" y="13.04" width="26.91" height="26.91" rx="7.12" transform="translate(-10.97 26.49) rotate(-45)"/>
      </g>
    </g>
  </g>
</svg>
