<?xml version="1.0"?>
<svg xmlns="http://www.w3.org/2000/svg" width="20" height="14.994" viewBox="0 0 20 14.994">
  <g id="Group_651" transform="translate(-487.858 -393.869)">
    <path id="Path_815" d="M505.367,393.869H490.35a2.48,2.48,0,0,0-2.492,2.49v9.955a2.485,2.485,0,0,0,2.027,2.511.409.409,0,0,1,.083.038h15.781c.109-.033.218-.063.326-.1a2.488,2.488,0,0,0,1.743-1.908.8.8,0,0,1,.04-.1V395.977c-.037-.121-.073-.243-.112-.365A2.479,2.479,0,0,0,505.367,393.869Zm-15.186,1.274h15.353l.021.046-7.7,6.6L490.17,395.2Zm-1.03,11.463c-.018-.171-.041-.292-.041-.413q0-3.8,0-7.61c0-.7,0-1.391,0-2.087a4.8,4.8,0,0,1,.056-.5l5.3,4.537Zm16.121,1.005q-7.408,0-14.818,0a4.323,4.323,0,0,1-.456-.054l5.424-6.2,1.525,1.305.4.344a.661.661,0,0,0,1.019.005l1.763-1.511c.053-.046.109-.089.17-.139l5.419,6.191A3.986,3.986,0,0,1,505.272,407.611Zm1.335-1.4c0,.114-.019.228-.029.343l-.053.01-5.272-6.023,5.3-4.538c.022.213.053.382.053.55q0,3.492,0,6.985Q506.608,404.87,506.607,406.207Z" fill="#88b1c7"/>
  </g>
</svg>
