<svg xmlns="http://www.w3.org/2000/svg" width="20" height="20" viewBox="0 0 20 20">
  <g id="Group_3550" data-name="Group 3550" transform="translate(-139.922 -194.02)">
    <g id="Group_3549" data-name="Group 3549">
      <path id="Path_4575" data-name="Path 4575" d="M158.575,199.009a9.932,9.932,0,0,0-3.864-3.768,9.724,9.724,0,0,0-3.694-1.159l-.606-.062h-.978l-.6.061a9.733,9.733,0,0,0-4.519,1.659,9.909,9.909,0,0,0-3.94,5.287,9.587,9.587,0,0,0-.437,2.375c0,.043-.013.086-.02.13v.977c.02.2.04.4.061.6a9.741,9.741,0,0,0,1.646,4.5,9.9,9.9,0,0,0,4.765,3.773,9.71,9.71,0,0,0,2.931.623c.036,0,.072.013.108.019h.978l.606-.061a9.645,9.645,0,0,0,3.925-1.292,9.913,9.913,0,0,0,4.523-5.653,9.529,9.529,0,0,0,.438-2.386.98.98,0,0,1,.019-.119v-.977q-.03-.3-.061-.6A9.75,9.75,0,0,0,158.575,199.009Zm-2.6,11.631c-.048-.183-.086-.367-.145-.545a5.06,5.06,0,0,0-3.25-3.369,3.967,3.967,0,0,0-1.334-.205c-.848,0-1.7.007-2.544,0a4.631,4.631,0,0,0-3.661,1.7,5.027,5.027,0,0,0-1.149,2.323c-.006.032-.016.062-.025.1a8.922,8.922,0,0,1-2.61-9.065,9,9,0,0,1,17.347.086A8.915,8.915,0,0,1,155.978,210.64Z" fill="#9da8a8"/>
      <path id="Path_4576" data-name="Path 4576" d="M149.946,198.508a3.5,3.5,0,1,0,3.484,3.507A3.506,3.506,0,0,0,149.946,198.508Z" fill="#9da8a8"/>
    </g>
  </g>
</svg>
