<svg xmlns="http://www.w3.org/2000/svg" width="22" height="22" viewBox="0 0 22 22">
  <g id="Group_4475" data-name="Group 4475" transform="translate(-310.482 -262.167)">
    <g id="Rectangle_2513" data-name="Rectangle 2513" transform="translate(310.482 262.167)" fill="none" stroke="#b13634" stroke-miterlimit="10" stroke-width="1">
      <rect width="22" height="22" rx="11" stroke="none"/>
      <rect x="0.5" y="0.5" width="21" height="21" rx="10.5" fill="none"/>
    </g>
    <g id="Group_3861" data-name="Group 3861">
      <path id="Path_5064" data-name="Path 5064" d="M320.175,275.9a4.45,4.45,0,0,1,.194-1.364,3.028,3.028,0,0,1,.607-1.084,7.215,7.215,0,0,1,.714-.731q.3-.255.862-.642c.388-.271.675-.484.863-.643a2.742,2.742,0,0,0,.546-.67,1.764,1.764,0,0,0,.265-.941q0-1.551-2.554-1.551a12.587,12.587,0,0,0-3.7.616l-.351-1.619a15.407,15.407,0,0,1,4.314-.617,5.344,5.344,0,0,1,3.2.819,2.566,2.566,0,0,1,1.119,2.175,3.516,3.516,0,0,1-.159,1.1,2.341,2.341,0,0,1-.519.872,7.139,7.139,0,0,1-.626.607c-.175.148-.434.338-.774.572s-.614.441-.784.582a6.914,6.914,0,0,0-.617.6,2.252,2.252,0,0,0-.51.854,3.481,3.481,0,0,0-.15,1.065Zm-.088,3.787v-2.289H322.2v2.289Z" fill="#b13634"/>
    </g>
  </g>
</svg>
