<svg xmlns="http://www.w3.org/2000/svg" width="20" height="18.347" viewBox="0 0 20 18.347">
    <g id="Group_5049" data-name="Group 5049" transform="translate(1237.897 -457.347)">
        <path id="Path_6365" data-name="Path 6365" d="M-1235.788,457.347h15.781a.433.433,0,0,0,.09.031,2.286,2.286,0,0,1,2.019,2.324q0,6.824,0,13.649a2.388,2.388,0,0,1-.062.56,2.282,2.282,0,0,1-2.289,1.781q-3.633,0-7.266,0-4,0-8.007,0a2.246,2.246,0,0,1-2.077-1.185,4.939,4.939,0,0,1-.3-.8V459.339c.013-.042.031-.083.04-.126a2.277,2.277,0,0,1,1.58-1.749C-1236.118,457.412-1235.951,457.385-1235.788,457.347Zm-.859,4.187v.2q0,5.789,0,11.577a1.053,1.053,0,0,0,1.148,1.137q7.605,0,15.21,0a1.053,1.053,0,0,0,1.141-1.145q0-5.778,0-11.557v-.207Zm17.49-1.267a6.067,6.067,0,0,0-.006-.764,1.047,1.047,0,0,0-1.141-.9q-7.594,0-15.188,0a1.8,1.8,0,0,0-.2.007,1.028,1.028,0,0,0-.946.89,6.476,6.476,0,0,0,0,.763Z" fill="#7db1c9"/>
        <path id="Path_6366" data-name="Path 6366" d="M-1228.317,465.286h-2.271V471.1c.117,0,.238,0,.358,0a.627.627,0,0,1,.661.641.617.617,0,0,1-.67.607q-1,0-1.992,0a.626.626,0,0,1-.666-.614.632.632,0,0,1,.671-.634c.116,0,.233,0,.361,0v-5.817h-2.283c0,.2,0,.388,0,.581a.628.628,0,0,1-.627.656.629.629,0,0,1-.622-.662c0-.39,0-.781,0-1.171a.621.621,0,0,1,.656-.665q3.505,0,7.009,0a.616.616,0,0,1,.663.656q.008.594,0,1.19a.622.622,0,0,1-.608.652.63.63,0,0,1-.639-.647C-1228.322,465.684-1228.317,465.49-1228.317,465.286Z" fill="#7db1c9"/>
        <path id="Path_6367" data-name="Path 6367" d="M-1222.878,464.025c.6,0,1.2,0,1.8,0a.633.633,0,0,1,.684.62.63.63,0,0,1-.675.629q-1.826,0-3.651,0a.63.63,0,0,1-.673-.631.629.629,0,0,1,.684-.618C-1224.1,464.024-1223.49,464.025-1222.878,464.025Z" fill="#7db1c9"/>
        <path id="Path_6368" data-name="Path 6368" d="M-1222.908,468.605c-.6,0-1.2,0-1.8,0a.63.63,0,0,1-.693-.627.63.63,0,0,1,.684-.621q1.815,0,3.631,0a.64.64,0,0,1,.677.525.617.617,0,0,1-.4.681.98.98,0,0,1-.306.041C-1221.711,468.606-1222.31,468.605-1222.908,468.605Z" fill="#7db1c9"/>
        <path id="Path_6369" data-name="Path 6369" d="M-1222.9,470.7c.631,0,1.263-.005,1.894,0a.611.611,0,0,1,.59.478.611.611,0,0,1-.3.679.835.835,0,0,1-.354.085q-1.825.009-3.651,0a.63.63,0,0,1-.674-.631.624.624,0,0,1,.683-.616c.606,0,1.211,0,1.816,0Z" fill="#7db1c9"/>
    </g>
</svg>
