<svg xmlns="http://www.w3.org/2000/svg" width="17.891" height="22" viewBox="0 0 17.891 22">
  <g id="Group_636" data-name="Group 636" transform="translate(-489.417 -470.419)">
    <path id="Path_796" data-name="Path 796" d="M507.291,490.122c.031-1.305.009-2.611.01-3.916q0-2.223,0-4.444a2.354,2.354,0,0,0-1.786-2.345,2.444,2.444,0,0,0-.609-.077q-3.552-.008-7.1,0h-4.807v-.125q0-.848,0-1.7a5.369,5.369,0,0,1,10.2-2.287.882.882,0,0,0,.87.537.86.86,0,0,0,.792-.565.787.787,0,0,0-.019-.664,7.171,7.171,0,0,0-1.821-2.391,7.018,7.018,0,0,0-3.543-1.638c-.243-.038-.488-.06-.733-.089h-.786c-.181.021-.362.04-.543.064a7.143,7.143,0,0,0-6.091,5.816,9.174,9.174,0,0,0-.111,1.306c-.019.568-.007,1.137,0,1.7a.127.127,0,0,1-.109.147,2.342,2.342,0,0,0-1.676,2.258q-.008,4.158,0,8.316a2.365,2.365,0,0,0,2.005,2.36l.153.028h13.559a4.762,4.762,0,0,0,.729-.205A2.246,2.246,0,0,0,507.291,490.122Zm-1.776-.738a1.181,1.181,0,0,1-1.007,1.226,3.931,3.931,0,0,1-.6.018q-2.772,0-5.544,0h0q-2.94,0-5.88,0a1.24,1.24,0,0,1-.927-.351,1.169,1.169,0,0,1-.349-.859q0-3.529,0-7.059a1.184,1.184,0,0,1,1.239-1.211h8.709c1.051,0,2.1,0,3.154,0a1.176,1.176,0,0,1,1.176.931,1.409,1.409,0,0,1,.032.311Q505.517,485.888,505.515,489.384Z" fill="#88b1c7"/>
    <path id="Path_797" data-name="Path 797" d="M499.433,485.286a1.892,1.892,0,0,0-.021-.291,1.166,1.166,0,0,0-1.154-.979,1.15,1.15,0,0,0-1.131,1,7.588,7.588,0,0,0,0,.784h0a7.642,7.642,0,0,0,.005.772,1.159,1.159,0,0,0,1.142,1.016,1.147,1.147,0,0,0,1.141-1C499.447,486.155,499.429,485.719,499.433,485.286Z" fill="#88b1c7"/>
  </g>
</svg>
