<svg xmlns="http://www.w3.org/2000/svg" width="120" height="120.082" viewBox="0 0 120 120.082">
  <g id="Group_599" data-name="Group 599" transform="translate(-660.314 -200.042)">
    <path id="Path_496" data-name="Path 496" d="M704.05,202.571q.416,2.171.838,4.371a55.375,55.375,0,1,1-20.362,95.246,54.331,54.331,0,0,1-18.693-32.915c-2.506-15.054.81-28.873,9.58-41.474l-3.913-2.261c-15.584,21.129-16.131,54.234,6.32,76.963a59.913,59.913,0,0,0,80.711,3.8c24.177-20.285,28.919-55.525,10.747-80.968C751.3,200.159,721.452,196.566,704.05,202.571Z" fill="#31736a"/>
    <path id="Path_497" data-name="Path 497" d="M681.571,291.727c9.457,11.427,21.786,17.451,36.608,18.27a45.006,45.006,0,0,0,15.142-1.707c.383-.112.964-.639.93-.906-.182-1.434-.53-2.846-.839-4.355a45.185,45.185,0,1,1,10.579-81.519A43.992,43.992,0,0,1,762.486,244.3c5.376,15.123,3.03,29.307-5.956,42.545,1.351.776,2.575,1.482,3.8,2.18a5.585,5.585,0,0,0,.576.245c.192-.248.373-.461.532-.69a48.293,48.293,0,0,0,8.813-24.879c.967-14.942-3.423-28.038-13.832-38.989-14.829-15.6-39.119-19.934-58.28-10.114-15.627,8.009-25.048,20.773-27.574,38.21A48.1,48.1,0,0,0,681.571,291.727Z" fill="#31736a"/>
    <path id="Path_498" data-name="Path 498" d="M725.84,266.518a15.692,15.692,0,1,0-20.823-18.5,36.024,36.024,0,0,0-.564,3.828h8.954c.081-.477.146-.912.229-1.344a6.711,6.711,0,0,1,13.235,2.166,6.591,6.591,0,0,1-6.609,5.91c-1.476.037-2.955.006-4.461.006V271.24h8.881c0-1.045.063-2.015-.017-2.974S724.909,266.882,725.84,266.518Z" fill="#31736a"/>
    <path id="Path_499" data-name="Path 499" d="M724.614,284.514V277.1h-8.8v7.414Z" fill="#31736a"/>
  </g>
</svg>
