<?xml version="1.0"?>
<svg xmlns="http://www.w3.org/2000/svg" width="18.371" height="20" viewBox="0 0 18.371 20">
  <g id="Group_6643" data-name="Group 6643" transform="translate(-400.814 -696.521)">
    <path id="Path_8172" data-name="Path 8172" d="M419.132,700.681a3.163,3.163,0,0,0-.493-1.166,2.924,2.924,0,0,0-1.116-1.011,2.963,2.963,0,0,0-1.421-.344h-.695c-.008-.055-.016-.086-.017-.117a4.956,4.956,0,0,0-.02-.68,1.021,1.021,0,0,0-2.026.181c0,.2,0,.4,0,.6-.064.006-.106.013-.148.013q-3.191,0-6.381,0c-.123,0-.157-.038-.155-.158a3.415,3.415,0,0,0-.024-.679,1.009,1.009,0,0,0-1.1-.8,1.022,1.022,0,0,0-.917,1.008c0,.2,0,.4,0,.626a6.661,6.661,0,0,0-.724.005,4.916,4.916,0,0,0-1,.17,3.065,3.065,0,0,0-2.071,2.936q0,5.39,0,10.78c0,.449-.012.9.008,1.345a4.041,4.041,0,0,0,.119.892,3.043,3.043,0,0,0,2.951,2.231c.914,0,1.829,0,2.743,0h9.433a2.991,2.991,0,0,0,2.319-1.02,2.93,2.93,0,0,0,.778-2.15c-.018-.436.016-.873.016-1.31q0-5.43,0-10.861A2.979,2.979,0,0,0,419.132,700.681Zm-1.1,12.707a1.9,1.9,0,0,1-1.957,1.978q-6.074.006-12.146,0a1.9,1.9,0,0,1-1.949-1.968q0-2.808,0-5.618c0-.491-.018-.983-.018-1.475,0-.512.019-1.025.015-1.537,0-.156.042-.2.2-.2q3.467.008,6.933,0h8.7c.224,0,.224,0,.224.215Q418.029,709.087,418.028,713.388Zm0-9.977H401.975v-.17c0-.661,0-1.321,0-1.981a1.915,1.915,0,0,1,1.94-1.95c.19,0,.379,0,.568,0,.1,0,.134.033.132.132,0,.308-.007.617,0,.925a1.023,1.023,0,0,0,2.02.2,1.332,1.332,0,0,0,.024-.29c0-.27.007-.541,0-.812,0-.122.04-.157.159-.156.633.005,1.265,0,1.9,0h2.838c.541,0,1.081.005,1.622,0,.14,0,.174.05.17.179-.008.282-.006.563,0,.845a1.023,1.023,0,1,0,2.046,0c0-.292,0-.584.005-.876,0-.048.054-.134.083-.134a3.9,3.9,0,0,1,1.209.082,1.91,1.91,0,0,1,1.34,1.769C418.035,701.909,418.028,702.65,418.028,703.411ZM406.169,712.2a2.173,2.173,0,0,1-.8-.941,3.856,3.856,0,0,1,0-2.939,2.185,2.185,0,0,1,.8-.941,2.278,2.278,0,0,1,2.342,0,2.185,2.185,0,0,1,.805.941,3.856,3.856,0,0,1,0,2.939,2.173,2.173,0,0,1-.805.941,2.272,2.272,0,0,1-2.342,0Zm1.93-1.126a3.127,3.127,0,0,0,0-2.569.9.9,0,0,0-1.511,0,3.127,3.127,0,0,0,0,2.569.894.894,0,0,0,1.511,0Zm5.569-1.5a1.479,1.479,0,0,1,.532,1.194,1.656,1.656,0,0,1-.241.88,1.693,1.693,0,0,1-.737.635,2.8,2.8,0,0,1-1.22.238,4.17,4.17,0,0,1-1.1-.147,2.817,2.817,0,0,1-.918-.42l.484-.936a2.307,2.307,0,0,0,.7.351,2.657,2.657,0,0,0,.808.124,1.268,1.268,0,0,0,.726-.181.579.579,0,0,0,.264-.506.569.569,0,0,0-.276-.514,1.9,1.9,0,0,0-.955-.174h-1.353l.272-2.977h3.226v.982h-2.206l-.083,1.006h.431A2.542,2.542,0,0,1,413.668,709.575Z" fill="#7db1c9"/>
  </g>
</svg>


