<?xml version="1.0"?>
<svg xmlns="http://www.w3.org/2000/svg" width="18" height="18" viewBox="0 0 18 18">
    <g id="Group_3536" transform="translate(-565.703 -68.588)">
        <path id="Path_4537" d="M574.282,83.059a.259.259,0,0,0-.206-.084q-3.262,0-6.524,0a.6.6,0,0,1-.648-.643V79.376h8.384v-1.2H566.9V72.86a.607.607,0,0,1,.674-.674h13.037a.607.607,0,0,1,.674.674q0,2.587,0,5.174v.145h1.2v-.123q0-2.614,0-5.23a2.122,2.122,0,0,0-.029-.347,1.8,1.8,0,0,0-1.795-1.493H577.7c0-.2,0-.385,0-.568a1.8,1.8,0,0,0-1.836-1.828q-1.766,0-3.532,0a1.994,1.994,0,0,0-.521.07A1.787,1.787,0,0,0,570.5,70.38c0,.2,0,.4,0,.606h-.133c-.941,0-1.883,0-2.824,0a2.009,2.009,0,0,0-.379.034A1.789,1.789,0,0,0,565.7,72.83q0,4.752,0,9.5a1.931,1.931,0,0,0,.02.314,1.791,1.791,0,0,0,1.82,1.528q3.813,0,7.626,0c.041,0,.081,0,.156-.006a.818.818,0,0,0-.092-.154C574.918,83.7,574.6,83.38,574.282,83.059ZM571.7,70.338a.575.575,0,0,1,.579-.547q1.816,0,3.633,0a.568.568,0,0,1,.571.517c.016.219,0,.441,0,.669H571.7C571.7,70.757,571.691,70.547,571.7,70.338Z" fill="#fff"/>
        <path id="Path_4538" d="M582.564,81.247a.255.255,0,0,1-.068-.164c0-.521,0-1.042,0-1.563v-.141h-.138c-.517,0-1.035,0-1.552,0a.251.251,0,0,1-.2-.083c-.339-.344-.682-.685-1.024-1.027l-.1-.1c-.034.042-.058.08-.09.112-.341.342-.682.686-1.027,1.024a.265.265,0,0,1-.165.068c-.521,0-1.042,0-1.563,0h-.141v.137c0,.517,0,1.035,0,1.552a.251.251,0,0,1-.083.2c-.341.337-.679.677-1.019,1.016l-.11.115a1.187,1.187,0,0,1,.115.087c.342.341.686.682,1.024,1.028a.26.26,0,0,1,.068.164c.006.386,0,.772,0,1.158v.547h.148c.514,0,1.028,0,1.541,0a.247.247,0,0,1,.2.082c.34.345.683.685,1.025,1.027.028.029.058.056.106.1a1.17,1.17,0,0,1,.087-.114c.341-.343.682-.686,1.028-1.024a.255.255,0,0,1,.164-.068c.521-.005,1.042,0,1.563,0h.142V85.23c0-.514,0-1.028,0-1.541a.246.246,0,0,1,.083-.2c.344-.34.685-.683,1.027-1.025.028-.028.055-.057.1-.107a.9.9,0,0,1-.107-.078C583.25,81.939,582.905,81.6,582.564,81.247ZM581.375,83a.257.257,0,0,0-.088.2c.006.318,0,.637,0,.967-.047,0-.086.007-.126.007-.277,0-.554,0-.831,0a.289.289,0,0,0-.235.1c-.194.2-.395.4-.607.612a5.58,5.58,0,0,1-.4-.415.73.73,0,0,0-.716-.3,5.739,5.739,0,0,1-.67.005c0-.051-.007-.091-.007-.131,0-.285.005-.57,0-.854a.306.306,0,0,0-.078-.183c-.174-.186-.357-.363-.537-.543l-.085-.091c.209-.207.411-.412.619-.611a.258.258,0,0,0,.086-.206c-.005-.318,0-.636,0-.967.048,0,.088-.008.127-.008.285,0,.57,0,.854,0a.245.245,0,0,0,.2-.083c.2-.207.406-.41.626-.63a4.8,4.8,0,0,1,.384.4.754.754,0,0,0,.755.315,5.424,5.424,0,0,1,.652,0V80.8c0,.247,0,.494,0,.742a.267.267,0,0,0,.087.217c.182.173.357.353.534.531.026.026.051.054.086.091C581.786,82.592,581.582,82.8,581.375,83Z" fill="#fff"/>
        <path id="Path_4539" d="M573.02,76.987c.719,0,1.439,0,2.159,0,.036,0,.072,0,.112-.006v-1.19a.53.53,0,0,0-.06-.007c-.75,0-1.5,0-2.249,0-.083,0-.088.041-.087.105,0,.326.005.652,0,.978C572.891,76.964,572.923,76.988,573.02,76.987Z" fill="#fff"/>
    </g>
</svg>
