<svg xmlns="http://www.w3.org/2000/svg" width="368.333" height="265.427" viewBox="0 0 368.333 265.427">
  <rect id="Rectangle_1237" data-name="Rectangle 1237" width="263.99" height="368.333" rx="40" transform="translate(368.333) rotate(90)" fill="#f2f2f2"/>
  <g id="Group_1729" data-name="Group 1729" transform="translate(1298.349 -341.092)">
    <path id="Path_2164" data-name="Path 2164" d="M-1248.971,426.938c21.095,0,187.443,0,208.538,0h0C-1061.528,426.935-1227.876,426.933-1248.971,426.938Z" fill="#7cb0c8"/>
    <path id="Path_2165" data-name="Path 2165" d="M-1248.677,452.8c21.023,0,187.3,0,208.322,0h0C-1061.378,452.8-1227.654,452.806-1248.677,452.8Z" fill="#7cb0c8"/>
    <path id="Path_2166" data-name="Path 2166" d="M-977.108,469.1q-31.587.018-63.175.007h0Q-1008.7,469.113-977.108,469.1Z" fill="#7cb0c8"/>
    <path id="Path_2167" data-name="Path 2167" d="M-977.143,520.771q-31.535-.008-63.07,0h0Q-1008.677,520.769-977.143,520.771Z" fill="#7cb0c8"/>
    <path id="Path_2168" data-name="Path 2168" d="M-957.473,341.5c-1.055-.132-2.11-.272-3.166-.409h-307.088c-1.477.2-2.961.364-4.43.618a31.716,31.716,0,0,0-26.192,31.1V575.24c0,15.565,12.413,29.371,27.908,31.018a41.85,41.85,0,0,0,4.406.25q151.922.018,303.842.01a31.809,31.809,0,0,0,31.619-25.359q.28-1.353.558-2.706V369.334c-.361-1.639-.651-3.3-1.093-4.915A31.741,31.741,0,0,0-957.473,341.5Zm18,232.934a22.146,22.146,0,0,1-18.814,22.248,18.185,18.185,0,0,1-3.109.261q-152.73.017-305.46.009a22.235,22.235,0,0,1-21.82-20.016c-.087-.963-.136-1.934-.136-2.9q-.009-100.245-.005-200.489c0-13.052,9.761-22.791,22.847-22.791q75.906,0,151.814,0,76.014,0,152.029.012c8.371,0,14.867,3.609,19.376,10.658a21.572,21.572,0,0,1,3.29,11.874Q-939.468,473.868-939.477,574.435Z" fill="#7cb0c8"/>
    <path id="Path_2169" data-name="Path 2169" d="M-1248.627,504.506c20.987,0,187.228,0,208.216,0h62.639c.359,0,.72.012,1.078-.011a4.8,4.8,0,0,0,4.391-6.169c-.618-2.152-2.524-3.428-5.143-3.428-41.939,0-229.132,0-271.071,0a7.908,7.908,0,0,0-1.5.124,4.743,4.743,0,0,0-3.664,5.952A4.831,4.831,0,0,0-1248.627,504.506Z" fill="#7cb0c8"/>
    <path id="Path_2170" data-name="Path 2170" d="M-977.143,520.771q-31.535-.008-63.07,0H-1248.32c-.359,0-.72-.017-1.078.008a4.748,4.748,0,0,0-4.269,6.058,4.773,4.773,0,0,0,4.952,3.5h271.5c.179,0,.36.012.538-.005a4.675,4.675,0,0,0,4.22-3.025A4.753,4.753,0,0,0-977.143,520.771Z" fill="#7cb0c8"/>
    <path id="Path_2171" data-name="Path 2171" d="M-977.108,469.1q-31.587.018-63.175.007h-175.763q-16.387,0-32.774-.009a4.739,4.739,0,0,0-3.767,1.521,4.533,4.533,0,0,0-.833,5.2,4.609,4.609,0,0,0,4.559,2.816c24.185,0,193.623,0,217.808,0q26.952,0,53.9.007a4.73,4.73,0,0,0,4.285-2.215,4.487,4.487,0,0,0,.134-4.9A4.662,4.662,0,0,0-977.108,469.1Z" fill="#7cb0c8"/>
    <path id="Path_2172" data-name="Path 2172" d="M-1248.971,426.938c21.095,0,187.443,0,208.538,0h18.759q22.317,0,44.633,0a4.629,4.629,0,0,0,4.573-2.945c1.318-3.34-1.013-6.577-4.746-6.577-42.082,0-229.417,0-271.5,0-.216,0-.432-.012-.647,0a4.6,4.6,0,0,0-3.3,1.607,4.53,4.53,0,0,0-.767,5.119A4.53,4.53,0,0,0-1248.971,426.938Z" fill="#7cb0c8"/>
    <path id="Path_2173" data-name="Path 2173" d="M-977.615,443.241h-270.744c-.36,0-.72,0-1.078.022a4.755,4.755,0,0,0-4.413,5.033c.159,2.706,2.215,4.506,5.173,4.507,21.023,0,187.3,0,208.322,0h62.746c.4,0,.792.012,1.185-.022a4.75,4.75,0,0,0,4.215-5.663C-972.751,444.568-974.6,443.241-977.615,443.241Z" fill="#7cb0c8"/>
  </g>
</svg>
