<svg xmlns="http://www.w3.org/2000/svg" width="20" height="20" viewBox="0 0 20 20">
  <g id="Group_4476" data-name="Group 4476" transform="translate(-220.284 -304.167)">
    <g id="Rectangle_2512" data-name="Rectangle 2512" transform="translate(220.284 304.167)" fill="none" stroke="#80aec8" stroke-miterlimit="10" stroke-width="1">
      <rect width="20" height="20" rx="10" stroke="none"/>
      <rect x="0.5" y="0.5" width="19" height="19" rx="9.5" fill="none"/>
    </g>
    <path id="Path_5063" data-name="Path 5063" d="M234.411,308.089a1.047,1.047,0,0,0-1.155.348,4.366,4.366,0,0,0-.287.423q-1.282,2.123-2.562,4.246c-.014.025-.032.048-.052.077-.024-.034-.042-.06-.059-.086q-1.322-2.073-2.646-4.145a7.082,7.082,0,0,0-.425-.581.948.948,0,0,0-1.611.291,1.047,1.047,0,0,0,.075.791c.075.141.155.281.241.415q1.227,1.93,2.457,3.858l.065.109h-.129c-.3,0-.606,0-.909,0a1.856,1.856,0,0,0-.707.115.632.632,0,0,0-.406.456.664.664,0,0,0,.463.832,2.467,2.467,0,0,0,.646.094c.568.012,1.135,0,1.7,0h.129V316.5h-.118c-.575,0-1.15-.01-1.724.005a2.46,2.46,0,0,0-.665.108.619.619,0,0,0-.45.653.607.607,0,0,0,.463.632,2.592,2.592,0,0,0,.655.1c.575.013,1.15,0,1.724,0h.121c0,.054,0,.1,0,.136,0,.278,0,.557.016.835a1.958,1.958,0,0,0,.236.869,1.02,1.02,0,0,0,1.711-.028,1.6,1.6,0,0,0,.176-.519c.041-.387.044-.777.063-1.166,0-.04,0-.08,0-.127h1.864a1.649,1.649,0,0,0,.742-.144.6.6,0,0,0,.344-.445.668.668,0,0,0-.5-.827,2.507,2.507,0,0,0-.617-.083c-.571-.011-1.142,0-1.713,0h-.113v-1.166h.137c.613,0,1.226,0,1.839-.005a1.294,1.294,0,0,0,.671-.166.679.679,0,0,0-.023-1.167,1.453,1.453,0,0,0-.549-.145c-.381-.025-.765-.015-1.148-.019h-.127c.027-.049.044-.082.063-.114q1.145-1.889,2.289-3.777a4.294,4.294,0,0,0,.3-.582A.905.905,0,0,0,234.411,308.089Z" fill="#80aec8"/>
  </g>
</svg>
