<svg xmlns="http://www.w3.org/2000/svg" width="20.25" height="17.049" viewBox="0 0 20.25 17.049">
    <g id="Group_5050" data-name="Group 5050" transform="translate(1238.023 -697.996)">
        <path id="Path_6370" data-name="Path 6370" d="M-1217.778,703.009a2.618,2.618,0,0,0-.439-.977,2.132,2.132,0,0,0-1.736-.837h0q-1.653,0-3.307,0h-1.73l.007-.433c.007-.424.015-.843.016-1.262a1.507,1.507,0,0,0-.386-1.114,1.5,1.5,0,0,0-1.107-.39h-2.93a1.348,1.348,0,0,0-1.433,1.428v.071c0,.289,0,.579,0,.87.006.218.019.437.032.664l.009.166h-5.058a2.129,2.129,0,0,0-2.157,1.839,2.345,2.345,0,0,0-.023.39q0,4.7,0,9.389a2.128,2.128,0,0,0,2.225,2.223h4.443q5.68,0,11.356.009h.005a2.188,2.188,0,0,0,2.183-1.759l.037-.056V703.042Zm-14.052,10.981-3.925,0h0a1.083,1.083,0,0,1-1.094-.615,1.385,1.385,0,0,1-.115-.568q-.012-4.7,0-9.391a1.089,1.089,0,0,1,1.164-1.175q1.329,0,2.657-.005,1.445,0,2.887,0a.191.191,0,0,1,.085.063c.3.371.592.744.886,1.117l.289.366a1.418,1.418,0,0,0,1.1.594h0a1.437,1.437,0,0,0,1.111-.593l.312-.391c.283-.353.566-.706.843-1.061a.226.226,0,0,1,.214-.1q1.656,0,3.316,0h2.073a1.09,1.09,0,0,1,1.169.817,1.645,1.645,0,0,1,.039.394q0,4.665,0,9.331a1.071,1.071,0,0,1-.8,1.158,1.728,1.728,0,0,1-.45.047q-3.133,0-6.264,0Zm5.807-13.342a1.316,1.316,0,0,1-.309.889q-.642.81-1.29,1.615a.376.376,0,0,1-.252.163h0a.389.389,0,0,1-.263-.169q-.452-.554-.9-1.11l-.451-.557a1.193,1.193,0,0,1-.282-.8c.005-.251,0-.5,0-.754q0-.258,0-.516h0c0-.27.092-.363.361-.366l.375,0h1.621c.33,0,.659,0,.988,0,.311,0,.4.086.4.391,0,.135,0,.269,0,.4C-1226.03,700.107-1226.032,700.378-1226.023,700.648Z" fill="#7db1c9"/>
        <path id="Path_6371" data-name="Path 6371" d="M-1228.252,709.582h0a2.448,2.448,0,0,0-1.035-1.456,6.037,6.037,0,0,0-.608-.314l-.163-.077c.027-.045.055-.091.08-.136a2.755,2.755,0,0,0,.239-2.374,2.512,2.512,0,0,0-3.118-1.515,2.5,2.5,0,0,0-1.676,3.026,6.432,6.432,0,0,0,.3.8c.034.081.07.163.1.245l-.065.027a2.336,2.336,0,0,0-1.448,1.318,14.341,14.341,0,0,0-.541,1.8.752.752,0,0,0,.55.889,1.638,1.638,0,0,0,.419.043q3.15,0,6.308,0h.117c.028,0,.057,0,.088,0a.872.872,0,0,0,.67-.336.864.864,0,0,0,.111-.733C-1228.015,710.43-1228.125,710-1228.252,709.582Zm-3.29-1.768a.964.964,0,0,1-1.22-.079,2.068,2.068,0,0,1-.793-1.762,1.459,1.459,0,0,1,.951-1.235,1.463,1.463,0,0,1,1.582.379,1.553,1.553,0,0,1,.391,1.136A2.1,2.1,0,0,1-1231.542,707.814Zm-1.694.87a2.013,2.013,0,0,0,2.314-.022.226.226,0,0,1,.151-.022,4.045,4.045,0,0,1,.468.145l.039.014a1.542,1.542,0,0,1,1.037,1.161c.057.224.118.445.181.675l.041.147h-6.083c.043-.142.079-.285.113-.424a2.805,2.805,0,0,1,.433-1.077,2.012,2.012,0,0,1,1.214-.643A.414.414,0,0,1-1233.236,708.684Z" fill="#7db1c9"/>
        <path id="Path_6372" data-name="Path 6372" d="M-1226.936,707.039h6.111a1.056,1.056,0,0,0,.232-.015.518.518,0,0,0,.413-.494.511.511,0,0,0-.413-.518,1.294,1.294,0,0,0-.257-.016h-6.086c-.616,0-.683.365-.683.522S-1227.552,707.039-1226.936,707.039Z" fill="#7db1c9"/>
        <path id="Path_6373" data-name="Path 6373" d="M-1224.974,708.638h.412a.8.8,0,0,0,.207-.023.515.515,0,0,0,.373-.546.5.5,0,0,0-.5-.467c-.31-.006-.619-.005-.928,0h-.255l-.5-.005c-.292,0-.583,0-.875,0a.53.53,0,0,0-.584.518.5.5,0,0,0,.141.356.618.618,0,0,0,.442.167l.97,0Z" fill="#7db1c9"/>
        <path id="Path_6374" data-name="Path 6374" d="M-1222.042,707.6a6.207,6.207,0,0,0-.7,0,.506.506,0,0,0-.479.51.515.515,0,0,0,.47.517,1.249,1.249,0,0,0,.138.006h.106l.1,0h.106a1.989,1.989,0,0,0,.257,0,.519.519,0,0,0,.465-.524A.511.511,0,0,0-1222.042,707.6Z" fill="#7db1c9"/>
        <path id="Path_6375" data-name="Path 6375" d="M-1227.319,699.6c-.135-.005-.271,0-.405,0h-.338c-.135,0-.265,0-.4,0a.523.523,0,0,0-.559.525.517.517,0,0,0,.542.517q.282,0,.561.005c.2,0,.4,0,.595-.006a.513.513,0,0,0,.538-.521A.52.52,0,0,0-1227.319,699.6Z" fill="#7db1c9"/>
    </g>
</svg>
