<svg xmlns="http://www.w3.org/2000/svg" width="20.001" height="20" viewBox="0 0 20.001 20">
  <g id="Group_3857" data-name="Group 3857" transform="translate(-220.283 -364.167)">
    <path id="Path_5058" data-name="Path 5058" d="M230.268,384.167a10,10,0,1,0-9.985-10A10,10,0,0,0,230.268,384.167Zm.024-18.39a8.389,8.389,0,1,1-8.4,8.355A8.408,8.408,0,0,1,230.292,365.777Z" fill="#80aec8"/>
    <path id="Path_5059" data-name="Path 5059" d="M230.366,374.975c.546,0,1.092,0,1.638,0,.9,0,1.8,0,2.7,0a.811.811,0,1,0,.013-1.618c-1.126,0-2.252,0-3.378,0h-.241v-.231q0-2.286,0-4.572a.872.872,0,0,0-.219-.627.811.811,0,0,0-1.4.614q0,2.772,0,5.544A.819.819,0,0,0,230.366,374.975Z" fill="#80aec8"/>
  </g>
</svg>
