<svg xmlns="http://www.w3.org/2000/svg" width="49.969" height="32" viewBox="0 0 49.969 32">
  <g id="Group_5128" data-name="Group 5128" transform="translate(-898.302 -3923.38)">
    <g id="Group_5127" data-name="Group 5127">
      <g id="Group_5118" data-name="Group 5118">
        <path id="Path_6499" data-name="Path 6499" d="M906.112,3948.165a9.155,9.155,0,0,0,1.666.178c2.869.018,5.739.023,8.609,0a9.14,9.14,0,0,0,1.931-.241,2.264,2.264,0,0,0,1.866-1.933,5.363,5.363,0,0,0-2.782-5.519,4.979,4.979,0,0,0-2.017-.6,18.627,18.627,0,0,1-2.576,4.327c-.048-.652-.09-1.275-.143-1.9a.368.368,0,0,1,.171-.379,1.1,1.1,0,0,0,.48-.891,3.208,3.208,0,0,1-2.438.013,1.129,1.129,0,0,0,.461.887c.07.059.167.151.164.224-.032.672-.083,1.344-.131,2.059a20.689,20.689,0,0,1-2.587-4.332,1.512,1.512,0,0,0-.176,0,5.367,5.367,0,0,0-4.659,5.731A2.356,2.356,0,0,0,906.112,3948.165Z" fill="#cbcbcb"/>
      </g>
      <g id="Group_5125" data-name="Group 5125">
        <g id="Group_5119" data-name="Group 5119">
          <path id="Path_6500" data-name="Path 6500" d="M943.068,3923.383l-14.2,0h-25.31c-.137,0-.273,0-.409.008a4.94,4.94,0,0,0-4.839,4.905q-.015,9.033-.005,18.067l0,4.1a4.445,4.445,0,0,0,.456,2.031,4.921,4.921,0,0,0,4.756,2.88q14.371,0,28.742,0h10.777c.126,0,.252,0,.378-.006a4.947,4.947,0,0,0,4.849-4.922q.014-8.664,0-17.328l0-4.813a4.476,4.476,0,0,0-.45-2.033A4.915,4.915,0,0,0,943.068,3923.383Zm.236,29.947h-6.875q-16.473,0-32.934,0a3.113,3.113,0,0,1-2.2-.778,2.888,2.888,0,0,1-.945-2.228l0-21.868a2.908,2.908,0,0,1,3.019-3.032c.794,0,1.585,0,2.376,0l37.391,0a2.942,2.942,0,0,1,2.98,2.16,3.2,3.2,0,0,1,.1.812q.006,10.98,0,21.96A2.906,2.906,0,0,1,943.3,3953.33Z" fill="#cbcbcb"/>
        </g>
        <g id="Group_5120" data-name="Group 5120">
          <path id="Path_6501" data-name="Path 6501" d="M925.27,3938.5h-.311c-.256,0-.511-.006-.766.007a.846.846,0,0,0-.81.854.833.833,0,0,0,.226.613,1.068,1.068,0,0,0,.77.273h16.762a2.3,2.3,0,0,0,.233,0,.874.874,0,0,0-.167-1.739H925.27Z" fill="#cbcbcb"/>
        </g>
        <g id="Group_5121" data-name="Group 5121">
          <path id="Path_6502" data-name="Path 6502" d="M925.27,3938.507h15.937l-15.937,0Z" fill="#cbcbcb"/>
        </g>
        <g id="Group_5122" data-name="Group 5122">
          <path id="Path_6503" data-name="Path 6503" d="M932.774,3934.571h5.68v0h.849c.671,0,1.341,0,2.012-.007a.853.853,0,0,0,.68-.344.884.884,0,0,0,.131-.779.916.916,0,0,0-.978-.617H924.417c-.1,0-.171,0-.242.005a.881.881,0,0,0-.568,1.466.963.963,0,0,0,.711.274q2.958.006,5.92,0Z" fill="#cbcbcb"/>
        </g>
        <g id="Group_5123" data-name="Group 5123">
          <path id="Path_6504" data-name="Path 6504" d="M924.317,3935.041h0Z" fill="#cbcbcb"/>
        </g>
        <g id="Group_5124" data-name="Group 5124">
          <path id="Path_6505" data-name="Path 6505" d="M934.064,3944.908a.849.849,0,0,0-.859-.717c-1.172-.006-2.346,0-3.524,0h-2.564c-.94,0-1.878,0-2.818,0a.874.874,0,0,0-.772,1.366.879.879,0,0,0,.726.375c1,.007,2.007.006,3.009,0h2.533q1.633.006,3.271,0a1.471,1.471,0,0,0,.432-.051A.854.854,0,0,0,934.064,3944.908Z" fill="#cbcbcb"/>
        </g>
      </g>
      <g id="Group_5126" data-name="Group 5126">
        <path id="Path_6506" data-name="Path 6506" d="M910.266,3939.961a2.9,2.9,0,0,0,3.67-.031,5.2,5.2,0,0,0,1.016-1.085,7.668,7.668,0,0,0,1.212-4.263c-.021-.181-.037-.5-.1-.806a4.149,4.149,0,0,0-3.692-3.372,4.041,4.041,0,0,0-4.128,2.881,6.694,6.694,0,0,0,.426,4.554A4.791,4.791,0,0,0,910.266,3939.961Zm-1.211-5.569a4.779,4.779,0,0,1,.218-1.064c.079-.241.258-.334.553-.2a5.459,5.459,0,0,0,4.528,0c.295-.13.481-.037.55.206a6.619,6.619,0,0,1,.23,1.277,7.608,7.608,0,0,1-.065,1.089l.562-.227c-.082.424-.135.792-.225,1.151a5.264,5.264,0,0,1-1.206,2.333,2.685,2.685,0,0,1-4.174.045,5.882,5.882,0,0,1-1.46-3.522l.48.2C909.046,3935.253,909.018,3934.82,909.055,3934.392Z" fill="#cbcbcb"/>
      </g>
    </g>
  </g>
</svg>
