<svg xmlns="http://www.w3.org/2000/svg" width="368.333" height="265.427" viewBox="0 0 368.333 265.427">
  <rect id="Rectangle_1237" data-name="Rectangle 1237" width="263.99" height="368.333" rx="40" transform="translate(368.333) rotate(90)" fill="#f2f2f2"/>
  <g id="Group_1728" data-name="Group 1728" transform="translate(1710.016 -341.092)">
    <path id="Path_2151" data-name="Path 2151" d="M-1515.384,426.938q31.643-.007,63.285,0h0Q-1483.741,426.935-1515.384,426.938Z" fill="#7cb0c8"/>
    <path id="Path_2152" data-name="Path 2152" d="M-1515.091,452.8q31.534,0,63.07,0h0Q-1483.557,452.8-1515.091,452.8Z" fill="#7cb0c8"/>
    <path id="Path_2153" data-name="Path 2153" d="M-1388.774,469.1q-31.588.018-63.176.007h0Q-1420.362,469.113-1388.774,469.1Z" fill="#7cb0c8"/>
    <path id="Path_2154" data-name="Path 2154" d="M-1388.81,520.771q-31.534-.008-63.069,0h0Q-1420.344,520.769-1388.81,520.771Z" fill="#7cb0c8"/>
    <path id="Path_2155" data-name="Path 2155" d="M-1369.139,341.5c-1.056-.132-2.111-.272-3.166-.409h-307.088c-1.477.2-2.962.364-4.43.618a31.716,31.716,0,0,0-26.193,31.1V575.24c0,15.565,12.413,29.371,27.908,31.018a41.868,41.868,0,0,0,4.407.25q151.92.018,303.841.01a31.808,31.808,0,0,0,31.619-25.359c.188-.9.372-1.8.558-2.706V369.334c-.36-1.639-.651-3.3-1.093-4.915A31.741,31.741,0,0,0-1369.139,341.5Zm17.995,232.934a22.146,22.146,0,0,1-18.814,22.248,18.185,18.185,0,0,1-3.109.261q-152.73.017-305.46.009a22.236,22.236,0,0,1-21.82-20.016c-.086-.963-.135-1.934-.135-2.9q-.01-100.245-.006-200.489c0-13.052,9.761-22.791,22.847-22.791q75.907,0,151.814,0,76.014,0,152.029.012c8.371,0,14.867,3.609,19.377,10.658a21.572,21.572,0,0,1,3.289,11.874Q-1351.134,473.868-1351.144,574.435Z" fill="#7cb0c8"/>
    <path id="Path_2156" data-name="Path 2156" d="M-1564.407,492.751c-8.17-9.092-18.433-14.126-30.671-14.49-10.305-.307-20.626-.084-30.94-.083a25.614,25.614,0,0,0-2.58.162,42.789,42.789,0,0,0-27.776,13.669,41.581,41.581,0,0,0-11.54,26.4c-.341,5.4-.184,10.841-.221,16.264-.026,3.811,1.861,5.662,5.7,5.662h51.644q26.037,0,52.075,0c3.235,0,5.354-1.867,5.37-4.88.028-5.244.1-10.493-.1-15.731A41.684,41.684,0,0,0-1564.407,492.751Zm1.466,37.894h-95.385c-.069-.1-.146-.153-.146-.21.036-5.483-.384-10.975.837-16.414a34.139,34.139,0,0,1,26.962-25.684,44.264,44.264,0,0,1,7.066-.617c9.27-.058,18.545-.173,27.81.046a33.86,33.86,0,0,1,32.643,30.6c.334,3.708.156,7.462.212,11.2C-1562.937,529.883-1562.941,530.2-1562.941,530.645Z" fill="#7cb0c8"/>
    <path id="Path_2157" data-name="Path 2157" d="M-1662.435,540.333h51.644q26.037,0,52.075,0-26.039,0-52.075,0Z" fill="#7cb0c8"/>
    <path id="Path_2158" data-name="Path 2158" d="M-1610.8,471.561a32.016,32.016,0,0,0,32.159-31.947,32.081,32.081,0,0,0-32.017-32.235,32.027,32.027,0,0,0-32.159,32.1A31.932,31.932,0,0,0-1610.8,471.561Zm-22.386-32.3a22.37,22.37,0,0,1,22.619-22.212,22.5,22.5,0,0,1,22.418,22.543,22.548,22.548,0,0,1-22.747,22.443A22.5,22.5,0,0,1-1633.19,439.262Z" fill="#7cb0c8"/>
    <path id="Path_2159" data-name="Path 2159" d="M-1515.04,504.506q31.481,0,62.962,0h62.639c.36,0,.72.012,1.078-.011a4.8,4.8,0,0,0,4.392-6.169c-.619-2.152-2.525-3.428-5.144-3.428q-62.908,0-125.817,0a7.907,7.907,0,0,0-1.5.124,4.743,4.743,0,0,0-3.664,5.952A4.83,4.83,0,0,0-1515.04,504.506Z" fill="#7cb0c8"/>
    <path id="Path_2160" data-name="Path 2160" d="M-1388.81,520.771q-31.534-.008-63.069,0h-62.854c-.36,0-.72-.017-1.078.008a4.748,4.748,0,0,0-4.269,6.058,4.772,4.772,0,0,0,4.952,3.5h126.247c.18,0,.361.012.539-.005a4.674,4.674,0,0,0,4.219-3.025A4.753,4.753,0,0,0-1388.81,520.771Z" fill="#7cb0c8"/>
    <path id="Path_2161" data-name="Path 2161" d="M-1388.774,469.1q-31.588.018-63.176.007h-30.51q-16.386,0-32.773-.009a4.737,4.737,0,0,0-3.767,1.521,4.533,4.533,0,0,0-.833,5.2,4.608,4.608,0,0,0,4.558,2.816q36.278,0,72.555,0,26.952,0,53.9.007a4.73,4.73,0,0,0,4.285-2.215,4.487,4.487,0,0,0,.134-4.9A4.661,4.661,0,0,0-1388.774,469.1Z" fill="#7cb0c8"/>
    <path id="Path_2162" data-name="Path 2162" d="M-1515.384,426.938q31.643-.007,63.285,0h18.759q22.315,0,44.633,0a4.629,4.629,0,0,0,4.572-2.945c1.318-3.34-1.012-6.577-4.746-6.577q-63.123,0-126.245,0c-.216,0-.433-.012-.647,0a4.6,4.6,0,0,0-3.3,1.607,4.532,4.532,0,0,0-.768,5.119A4.531,4.531,0,0,0-1515.384,426.938Z" fill="#7cb0c8"/>
    <path id="Path_2163" data-name="Path 2163" d="M-1389.281,443.241h-125.492c-.359,0-.719,0-1.077.022a4.755,4.755,0,0,0-4.413,5.033c.159,2.706,2.215,4.506,5.172,4.507q31.534,0,63.07,0h62.745c.4,0,.792.012,1.185-.022a4.749,4.749,0,0,0,4.215-5.663C-1384.417,444.568-1386.262,443.241-1389.281,443.241Z" fill="#7cb0c8"/>
  </g>
</svg>
