<svg xmlns="http://www.w3.org/2000/svg" width="19.979" height="20" viewBox="0 0 19.979 20">
    <g id="Group_4486" data-name="Group 4486" transform="translate(-3809.419 -831.57)">
        <path id="Path_5705" data-name="Path 5705" d="M3820.2,838.6a.531.531,0,0,1,.6-.537c.34,0,.68,0,1.021,0,.052,0,.1,0,.155-.006v-1.8a.29.29,0,0,0-.063-.014c-.6,0-1.212-.026-1.816,0a2.032,2.032,0,0,0-2.113,1.957,15.02,15.02,0,0,0-.032,1.56c0,.063,0,.127,0,.207h-1.129v1.884h1.129v5.746h2.247v-5.753h1.614c.065-.628.128-1.243.193-1.877h-1.808C3820.193,839.494,3820.178,839.045,3820.2,838.6Z" fill="#88b1c7"/>
        <g id="Path_5706" data-name="Path 5706" fill="none" stroke-miterlimit="10">
            <path d="M3819.433,831.57a10,10,0,1,0,9.965,10.024A10,10,0,0,0,3819.433,831.57Z" stroke="none"/>
            <path d="M 3819.421142578125 831.5700073242188 L 3819.421142578125 832.5700073242188 C 3814.460205078125 832.5700073242188 3810.421875 836.6027221679688 3810.4189453125 841.5595703125 C 3810.416259765625 846.520751953125 3814.438232421875 850.5628051757812 3819.383056640625 850.5700073242188 L 3819.39404296875 850.5700073242188 C 3824.352783203125 850.5700073242188 3828.391845703125 846.5428466796875 3828.39794921875 841.592529296875 C 3828.4013671875 839.1883544921875 3827.46923828125 836.924560546875 3825.77294921875 835.2181396484375 C 3824.07763671875 833.5126342773438 3821.82568359375 832.5722045898438 3819.43310546875 832.5700073242188 L 3819.421875 832.5700073242188 L 3819.421142578125 831.5700073242188 M 3819.422119140625 831.5700073242188 C 3819.42529296875 831.5700073242188 3819.4296875 831.5700073242188 3819.43310546875 831.5700073242188 C 3824.93603515625 831.5750122070312 3829.406005859375 836.072021484375 3829.39794921875 841.593994140625 C 3829.39111328125 847.1006469726562 3824.9072265625 851.5700073242188 3819.39404296875 851.5700073242188 C 3819.390625 851.5700073242188 3819.386474609375 851.5700073242188 3819.383056640625 851.5700073242188 C 3813.885986328125 851.56201171875 3809.416015625 847.072998046875 3809.4189453125 841.5590209960938 C 3809.422119140625 836.0423583984375 3813.901611328125 831.5695190429688 3819.422119140625 831.5700073242188 Z" stroke="none" fill="#88b1c7"/>
        </g>
    </g>
</svg>
