<?xml version="1.0"?>
<svg xmlns="http://www.w3.org/2000/svg" width="19.49" height="20" viewBox="0 0 19.49 20">
  <g id="Group_6675" data-name="Group 6675" transform="translate(-400.255 -636.52)">
    <path id="Path_8230" data-name="Path 8230" d="M403.523,646.075h5.739c.313,0,.415-.106.416-.422v-.884H411c0,.3,0,.583,0,.869,0,.33.1.437.426.437h5.657c.43,0,.506-.077.506-.5q0-3.642,0-7.283c0-.356-.1-.454-.449-.454h-3.477a.351.351,0,0,1-.023-.069c0-.26,0-.521,0-.781,0-.368-.1-.469-.457-.469h-5.657c-.376,0-.475.1-.476.473v.846h-3.527c-.311,0-.424.111-.424.419q0,3.693,0,7.387C403.09,645.968,403.2,646.075,403.523,646.075Zm10.776-6.258a.657.657,0,1,1-.665.646A.661.661,0,0,1,414.3,639.817Zm-.641,4.61h2.265v-.65h-2.278v-.661h2.282v-.662h-2.285v-.815a1.314,1.314,0,0,0,1.767-.474,1.285,1.285,0,0,0-.08-1.5c-.38-.488-.884-.6-1.683-.357v-.79h3.265v6.889H411.67v-.647h1.5C413.484,644.758,413.541,644.719,413.658,644.427Zm-5.941-7.236h5.244v6.89h-5.244Zm-3.953,1.32h3.262v.8a1.3,1.3,0,0,0-1.748.461,1.274,1.274,0,0,0,.06,1.5c.379.5.894.615,1.694.374v.8H404.75v.658h2.278v.659h-2.277v.655h2.278c.053.3.253.351.506.345.485-.01.971,0,1.478,0v.641h-5.249Zm3.277,1.954a.657.657,0,1,1-1.314.01.663.663,0,0,1,.653-.658A.656.656,0,0,1,407.041,640.465Z" fill="#7db1c9"/>
    <path id="Path_8231" data-name="Path 8231" d="M418.509,647.244a1.463,1.463,0,0,0-1.246.345,30.426,30.426,0,0,0-6.153.217l-1.848,1.848c-.051.051-.106.1-.159.146a1.757,1.757,0,0,0-1.662-.76c-1.187,0-2.373,0-3.56,0a.586.586,0,0,0-.454.189q-1.056,1.068-2.124,2.126c-.358.356-.722.707-1.048,1.026l.472.528a1.8,1.8,0,0,1,.141-.183q1.446-1.451,2.9-2.893a.45.45,0,0,1,.279-.125q1.8-.012,3.6-.005a.989.989,0,1,1,.007,1.975c-.439,0-.878,0-1.317,0h-.924v.653c.839,0,1.662.018,2.484-.007a1.34,1.34,0,0,0,1.014-.523,7.512,7.512,0,0,0,.482-.781h.184c1.646,0,3.292,0,4.938,0a.539.539,0,0,0,.419-.171c.387-.4.783-.788,1.176-1.181.514-.514,1.026-1.031,1.544-1.541a.833.833,0,0,1,1.423.551.88.88,0,0,1-.3.692q-1.742,1.735-3.476,3.48a.458.458,0,0,1-.359.147c-2.257,0-4.513,0-6.77-.005a.586.586,0,0,0-.456.185c-.563.573-1.132,1.138-1.7,1.7-.389.387-.78.77-1.182,1.166l.518.473a1.736,1.736,0,0,1,.14-.179c.843-.846,1.689-1.687,2.528-2.536a.479.479,0,0,1,.377-.154c2.263,0,4.527,0,6.79.005a.512.512,0,0,0,.4-.164c.282-.291.571-.573.858-.859.955-.956,1.914-1.908,2.864-2.87a1.493,1.493,0,0,0-.8-2.519Zm-8.14,3.109c-.271.016-.544,0-.856,0,.054-.065.079-.1.11-.133q1.032-1.033,2.066-2.065a.816.816,0,0,1,1.122-.091c-.041.045-.079.091-.121.133-.678.679-1.355,1.36-2.039,2.032A.472.472,0,0,1,410.369,650.353Zm1.975,0c-.272.015-.544,0-.852,0,.044-.056.064-.089.09-.115.7-.7,1.392-1.4,2.092-2.092a.8.8,0,0,1,1.149-.049,3.6,3.6,0,0,0-.289.235c-.637.632-1.267,1.271-1.908,1.9A.474.474,0,0,1,412.344,650.353Zm4.283-2.135c-.672.674-1.343,1.349-2.022,2.016a.466.466,0,0,1-.281.118c-.272.016-.545.006-.818.006l-.034-.06c.188-.177.38-.351.564-.534.539-.535,1.074-1.075,1.613-1.611a.8.8,0,0,1,1.115-.082C416.718,648.12,416.675,648.171,416.627,648.218Z" fill="#7db1c9"/>
    <path id="Path_8232" data-name="Path 8232" d="M410.356,640.474a1.317,1.317,0,1,0-1.336-1.3A1.314,1.314,0,0,0,410.356,640.474Zm-.022-1.975a.658.658,0,1,1-.655.659A.669.669,0,0,1,410.334,638.5Z" fill="#7db1c9"/>
    <path id="Path_8233" data-name="Path 8233" d="M408.7,641.778h3.276v-.63H408.7Z" fill="#7db1c9"/>
    <path id="Path_8234" data-name="Path 8234" d="M408.7,643.1h3.275v-.63H408.7Z" fill="#7db1c9"/>
  </g>
</svg>

