<?xml version="1.0"?>
<svg xmlns="http://www.w3.org/2000/svg" width="16.487" height="16" viewBox="0 0 16.487 16">
    <g id="Group_6229" transform="translate(-1040.166 -239.071)">
        <path id="Path_7545" d="M1050.585,250a.737.737,0,0,0-.722.822q0,1.266,0,2.533v.251h-8.222V240.541h8.222v.265q0,1.266,0,2.532a.736.736,0,1,0,1.459,0q0-1.728,0-3.456a.744.744,0,0,0-.827-.815h-9.489a.748.748,0,0,0-.839.828q0,7.171,0,14.343a.748.748,0,0,0,.838.829h9.489a.747.747,0,0,0,.828-.838q0-1.7,0-3.408A.739.739,0,0,0,1050.585,250Z" fill="#999"/>
        <path id="Path_7546" d="M1053.09,243.224a.912.912,0,0,0-.356-.218.7.7,0,0,0-.816.32.717.717,0,0,0,.12.891c.643.651,1.292,1.294,1.939,1.942.053.053.1.11.188.2h-5.76c-.734,0-1.467,0-2.2,0a.726.726,0,0,0-.752.83.749.749,0,0,0,.816.628h7.825l.042.071a2.076,2.076,0,0,0-.2.161c-.621.617-1.238,1.238-1.859,1.855a.744.744,0,0,0-.252.657.681.681,0,0,0,.481.589.732.732,0,0,0,.8-.21q1.629-1.632,3.261-3.263a.753.753,0,0,0,.007-1.182Q1054.735,244.857,1053.09,243.224Z" fill="#999"/>
    </g>
</svg>
