<?xml version="1.0"?>
<svg xmlns="http://www.w3.org/2000/svg" width="32" height="32" viewBox="0 0 32 32">
    <circle id="Ellipse_2" cx="16" cy="16" r="16" transform="translate(0 0)" fill="#82b0ca"/>
    <path id="Path_7" d="M1309.691,25.26l0,.017Z" transform="translate(-1288 -14)" fill="#003156"/>
    <path id="Path_8" d="M1307.764,45.528a16.3,16.3,0,0,0,10.394-8.15A15.428,15.428,0,0,0,1320,29.551a15.179,15.179,0,0,0-1.22-5.64,16.362,16.362,0,0,0-8.9-8.767,15.828,15.828,0,0,0-3.329-.937,15.628,15.628,0,0,0-9.121,1.25,16.225,16.225,0,0,0-6.4,5.291,15.824,15.824,0,0,0-2.685,6.061,14.8,14.8,0,0,0-.3,2.261c-.006.122-.033.243-.05.365v1.114c.018.131.044.261.052.393a15.111,15.111,0,0,0,.6,3.435,16.087,16.087,0,0,0,5.105,7.8,15.888,15.888,0,0,0,6.291,3.293,14.332,14.332,0,0,0,2.241.415c.355.035.711.06,1.066.09.042,0,.084.015.125.022h1.086c.17-.017.339-.04.509-.051A15.269,15.269,0,0,0,1307.764,45.528ZM1292.7,38.795c-.038-.049-.073-.091-.106-.135a14.06,14.06,0,0,1-2.363-4.859,14.927,14.927,0,0,1-.452-4.937,14.081,14.081,0,0,1,3.393-8.251,13.819,13.819,0,0,1,5.752-4,14.264,14.264,0,0,1,3.193-.783,14.733,14.733,0,0,1,3.092-.074,14.039,14.039,0,0,1,7.941,3.179,13.866,13.866,0,0,1,4.584,6.994,14.358,14.358,0,0,1,.523,2.931,14.67,14.67,0,0,1-.04,2.708,14.161,14.161,0,0,1-2.783,7.1c-.028.037-.059.073-.1.121a12.952,12.952,0,0,0-7.486-6.476c.275-.205.552-.391.807-.6a7.49,7.49,0,0,0,2.631-4.267,6.818,6.818,0,0,0-.641-4.7,7.588,7.588,0,0,0-4.655-3.892,6.642,6.642,0,0,0-2.526-.265,7.245,7.245,0,0,0-4.035,1.643A7.46,7.46,0,0,0,1296.8,24.3a6.939,6.939,0,0,0,.725,5.212,7.688,7.688,0,0,0,2.542,2.714l.1.063a.163.163,0,0,1,.023.028A12.941,12.941,0,0,0,1292.7,38.795Zm13-7.323a5.9,5.9,0,0,1-3.865-.166,5.329,5.329,0,0,1-3.378-3.936,5.829,5.829,0,0,1,.253-3.575,5.335,5.335,0,0,1,3.894-3.349,5.82,5.82,0,0,1,3.63.252,5.377,5.377,0,0,1,3.355,3.99q.048.212.078.417c.008.052.015.1.021.155l0,.017a6.332,6.332,0,0,1-.281,2.69,5.467,5.467,0,0,1-.517,1.1A5.335,5.335,0,0,1,1305.7,31.472Zm-2.163,12.792a14.415,14.415,0,0,1-4.761-.95,13.958,13.958,0,0,1-4.725-3c-.1-.1-.1-.1-.05-.23a10.579,10.579,0,0,1,6.063-5.944,10.325,10.325,0,0,1,2.768-.654,10.929,10.929,0,0,1,6.149,1.1,10.54,10.54,0,0,1,4.868,5.09c.08.172.153.348.239.545-.323.285-.629.571-.952.836a14.007,14.007,0,0,1-5.567,2.785A14.75,14.75,0,0,1,1303.54,44.264Z" transform="translate(-1288 -14)" fill="#003156"/>
</svg>
