<svg xmlns="http://www.w3.org/2000/svg" width="20" height="20" viewBox="0 0 20 20">
    <circle id="Ellipse_4" data-name="Ellipse 4" cx="10" cy="10" r="10" fill="#3081b7"/>
    <g id="Group_16" data-name="Group 16" transform="translate(-1049.752 -870.874)">
        <path id="Path_95" data-name="Path 95" d="M1059.685,883.925a1,1,0,0,1,1.122,1.078,1.026,1.026,0,0,1-1.093,1.123,1.014,1.014,0,0,1-1.12-1.093A1.043,1.043,0,0,1,1059.685,883.925Zm-.117-1.792c0-2.286-.945-3.874-.945-5.33a1.074,1.074,0,0,1,1.179-1.181c.555,0,1.107.233,1.107,1.181,0,1.558-1.018,3.03-1.018,5.345v1.238h-.323Z" fill="#fff"/>
    </g>
</svg>
