<svg xmlns="http://www.w3.org/2000/svg" width="20" height="21.796" viewBox="0 0 20 21.796">
  <g id="Group_3258" data-name="Group 3258" transform="translate(2336.773 -3705.333)">
    <path id="Path_3260" data-name="Path 3260" d="M-2318.3,3708.492c-.469-.006-.938,0-1.407,0h-.153v-.142c0-.361,0-.722,0-1.083a1.874,1.874,0,0,0-1.573-1.862,6.1,6.1,0,0,0-.7-.07h-.267a2.59,2.59,0,0,0-.841.161,1.939,1.939,0,0,0-1.225,1.765c-.006.361,0,.722,0,1.084v.14h-4.61v-.141c-.005-.423.021-.85-.023-1.269a1.881,1.881,0,0,0-1.82-1.705,6.439,6.439,0,0,0-1.241.041,1.9,1.9,0,0,0-1.521,1.757c-.014.407,0,.814-.006,1.221,0,.028,0,.057-.006.1h-.135c-.445,0-.889.016-1.333,0a1.584,1.584,0,0,0-1.61,1.624c.013,2.358,0,4.716,0,7.074,0,2.773.007,5.546,0,8.319a1.591,1.591,0,0,0,1.165,1.575,1.736,1.736,0,0,0,.419.048q8.4,0,16.811,0a1.523,1.523,0,0,0,1.584-1.365.328.328,0,0,1,.02-.059v-15.792c-.02-.093-.035-.187-.06-.278A1.555,1.555,0,0,0-2318.3,3708.492Zm-4.631-1.1c0-.318.128-.444.446-.445h.66c.295,0,.427.129.429.426,0,.4,0,.8,0,1.2,0,.734,0,1.469,0,2.2,0,.3-.124.432-.417.436-.245,0-.49,0-.735,0a.351.351,0,0,1-.383-.39c0-.577,0-1.154,0-1.731Zm-9.226.043a1.206,1.206,0,0,1,.005-.136.345.345,0,0,1,.363-.349q.4-.012.809,0a.35.35,0,0,1,.358.392c0,.586,0,1.171,0,1.756q0,.842,0,1.682c0,.3-.123.426-.421.429-.245,0-.49,0-.735,0a.347.347,0,0,1-.376-.359c0-.042,0-.083,0-.125Q-2332.156,3709.083-2332.154,3707.439Zm13.83,18.14h-16.9v-12.418h16.9Z" fill="#bc282d"/>
  </g>
</svg>
